<mxfile host="65bd71144e">
    <diagram id="8pV_F7IUItpzgC7dOAMi" name="Page-1">
        <mxGraphModel dx="194" dy="484" grid="1" gridSize="10" guides="1" tooltips="1" connect="1" arrows="1" fold="1" page="1" pageScale="1" pageWidth="850" pageHeight="1100" math="0" shadow="0">
            <root>
                <mxCell id="0"/>
                <mxCell id="1" parent="0"/>
                <mxCell id="8" value="RTOS" style="swimlane;childLayout=stackLayout;resizeParent=1;resizeParentMax=0;horizontal=1;startSize=20;horizontalStack=0;html=1;" vertex="1" parent="1">
                    <mxGeometry x="40" y="50" width="340" height="180" as="geometry"/>
                </mxCell>
                <mxCell id="9" value="Lane 1" style="swimlane;startSize=20;horizontal=0;html=1;" vertex="1" parent="8">
                    <mxGeometry y="20" width="340" height="70" as="geometry"/>
                </mxCell>
                <mxCell id="10" value="Lane 2" style="swimlane;startSize=20;horizontal=0;html=1;" vertex="1" parent="8">
                    <mxGeometry y="90" width="340" height="90" as="geometry"/>
                </mxCell>
                <mxCell id="14" value="Middleware" style="text;html=1;align=center;verticalAlign=middle;resizable=0;points=[];autosize=1;strokeColor=none;fillColor=none;" vertex="1" parent="10">
                    <mxGeometry x="120" y="30" width="80" height="30" as="geometry"/>
                </mxCell>
                <mxCell id="12" value="Lane 3" style="swimlane;startSize=20;horizontal=0;html=1;" vertex="1" parent="1">
                    <mxGeometry x="40" y="230" width="340" height="80" as="geometry"/>
                </mxCell>
                <mxCell id="15" value="Real-time kernel" style="text;html=1;align=center;verticalAlign=middle;resizable=0;points=[];autosize=1;strokeColor=none;fillColor=none;" vertex="1" parent="12">
                    <mxGeometry x="110" y="25" width="110" height="30" as="geometry"/>
                </mxCell>
                <mxCell id="13" value="Application" style="text;html=1;align=center;verticalAlign=middle;resizable=0;points=[];autosize=1;strokeColor=none;fillColor=none;" vertex="1" parent="1">
                    <mxGeometry x="160" y="95" width="80" height="30" as="geometry"/>
                </mxCell>
                <mxCell id="16" value="Lane 3" style="swimlane;startSize=20;horizontal=0;html=1;" vertex="1" parent="1">
                    <mxGeometry x="40" y="310" width="340" height="80" as="geometry"/>
                </mxCell>
                <mxCell id="17" value="Driver" style="text;html=1;align=center;verticalAlign=middle;resizable=0;points=[];autosize=1;strokeColor=none;fillColor=none;" vertex="1" parent="16">
                    <mxGeometry x="130" y="20" width="60" height="30" as="geometry"/>
                </mxCell>
                <mxCell id="18" value="Lane 3" style="swimlane;startSize=20;horizontal=0;html=1;" vertex="1" parent="1">
                    <mxGeometry x="40" y="390" width="340" height="80" as="geometry"/>
                </mxCell>
                <mxCell id="19" value="Hardware" style="text;html=1;align=center;verticalAlign=middle;resizable=0;points=[];autosize=1;strokeColor=none;fillColor=none;" vertex="1" parent="18">
                    <mxGeometry x="120" y="20" width="80" height="30" as="geometry"/>
                </mxCell>
                <mxCell id="20" value="OS" style="swimlane;childLayout=stackLayout;resizeParent=1;resizeParentMax=0;horizontal=1;startSize=20;horizontalStack=0;html=1;" vertex="1" parent="1">
                    <mxGeometry x="460" y="50" width="340" height="180" as="geometry"/>
                </mxCell>
                <mxCell id="21" value="Lane 1" style="swimlane;startSize=20;horizontal=0;html=1;" vertex="1" parent="20">
                    <mxGeometry y="20" width="340" height="70" as="geometry"/>
                </mxCell>
                <mxCell id="22" value="Lane 2" style="swimlane;startSize=20;horizontal=0;html=1;" vertex="1" parent="20">
                    <mxGeometry y="90" width="340" height="90" as="geometry"/>
                </mxCell>
                <mxCell id="23" value="Middleware" style="text;html=1;align=center;verticalAlign=middle;resizable=0;points=[];autosize=1;strokeColor=none;fillColor=none;" vertex="1" parent="22">
                    <mxGeometry x="120" y="30" width="80" height="30" as="geometry"/>
                </mxCell>
                <mxCell id="24" value="Lane 3" style="swimlane;startSize=20;horizontal=0;html=1;" vertex="1" parent="1">
                    <mxGeometry x="460" y="230" width="340" height="80" as="geometry"/>
                </mxCell>
                <mxCell id="25" value="OS" style="text;html=1;align=center;verticalAlign=middle;resizable=0;points=[];autosize=1;strokeColor=none;fillColor=none;" vertex="1" parent="24">
                    <mxGeometry x="145" y="25" width="40" height="30" as="geometry"/>
                </mxCell>
                <mxCell id="26" value="Application" style="text;html=1;align=center;verticalAlign=middle;resizable=0;points=[];autosize=1;strokeColor=none;fillColor=none;" vertex="1" parent="1">
                    <mxGeometry x="580" y="95" width="80" height="30" as="geometry"/>
                </mxCell>
                <mxCell id="27" value="Lane 3" style="swimlane;startSize=20;horizontal=0;html=1;" vertex="1" parent="1">
                    <mxGeometry x="460" y="310" width="340" height="80" as="geometry"/>
                </mxCell>
                <mxCell id="28" value="Driver" style="text;html=1;align=center;verticalAlign=middle;resizable=0;points=[];autosize=1;strokeColor=none;fillColor=none;" vertex="1" parent="27">
                    <mxGeometry x="130" y="20" width="60" height="30" as="geometry"/>
                </mxCell>
                <mxCell id="29" value="Lane 3" style="swimlane;startSize=20;horizontal=0;html=1;" vertex="1" parent="1">
                    <mxGeometry x="460" y="390" width="340" height="80" as="geometry"/>
                </mxCell>
                <mxCell id="30" value="Hardware" style="text;html=1;align=center;verticalAlign=middle;resizable=0;points=[];autosize=1;strokeColor=none;fillColor=none;" vertex="1" parent="29">
                    <mxGeometry x="120" y="20" width="80" height="30" as="geometry"/>
                </mxCell>
                <mxCell id="31" value="" style="shape=image;verticalLabelPosition=bottom;labelBackgroundColor=default;verticalAlign=top;aspect=fixed;imageAspect=0;image=data:image/png,iVBORw0KGgoAAAANSUhEUgAAAaYAAAEVCAYAAACrL0HYAAAAAXNSR0IArs4c6QAAAARnQU1BAACxjwv8YQUAAAAJcEhZcwAAEnQAABJ0Ad5mH3gAAPCISURBVHhe7P3Xsy3JdR761va2faMtTDdswwMkAMKRBEGCEAUeiRTFB0XoSf+EIvTEG9KDQq8KhSIYceLew9AREZToQIIi4QHCe0d420AbAO17e3vzlzW/tXLVrrn8mtt0fSvGqqqsNCNHjhwjMyur5q6LBd2ECRMmTJhwhWD37DhhwoQJEyZcEZgc04QJEyZMuKIwOaYJEyZMmHBFYXJMEyZMmDDhisLkmCZMmDBhwhWFyTFNmDBhwoQrCpNjmjBhwoQJVxQmxzRhwoQJE64oTI5pwoQJEyZcUZgc04QJEyZMuKIwOaYJEyZMmHBFYfpW3oQdR1TMEe3evbvbtWtXDQNhFy5cqLRv374VYeKJnzAUuNfmA+39YBhnPRjmI4+U3+Y3lveQx3lo80qaYTmrpYfEbZF0bXjySVib71j6jWCYp2vUXjtHbVnDctLebXgbPxDW6gS0aeQTJB6sVrZ7aFj+GJL/PB6SV1t2i8SH1co6f/58zWOM11ZWSNz2OvECYbnOfXnIv403xluOi8S45CZM2AZQ8ii6o86TTu2Ict+9s2fPLt2HM2fOrAgT99y5czUseYfa/BKnzcu5sKCNH7T5QfJxhOSRsMRr6yVsyGPCh+W117mffFq08dr7wpDylRmexBGWNDDMO2mTd87bOJB7wfBafHVt8wkvwmIQh3knXQvt3cZp8xrm7byN00K+8mrDxUu7Bcoa5jO8Lx+yDBIvYblu6yLs9OnTs6seKSeQt3TD+iZe8h3GUW7k7TzH8CldGyd5pu7JH1p5t+Uln6Rv81kU9vxRwex8woRtRZQZMVB79uxZGkWeOHGikg5z4MCBGkdHOXXqVI2DnKfzmEkJO378eHfy5Mlu//799VpHko9jwCgg6eQtj2PHjtV4R44cqWXJ+4knnuj27t1bCZ566qklg6I85Ygnb9fyUb58XOMBHn/88Zpnrp9++uma7uDBgzVcevWUPxkoL/V1FOa+siMP8sK/sLZueJIuxiMyEE++rlMWfuQtHp4gZUuDR/mNyT/pyE1ZrvHkvrJSV2XJWxokLhklDYLwTG7Jh/xdR/6uxRcG4U9acaRHrpOPeigPr6kbniMP8fAojnBpwqt2k1/q77642g1ckyMkb2m0Cz6F4VE8PB0+fLjGFfbII49UGSXdk08+We/lGj/SOMej89Q1bY/oGl6lA2Wps7LEc19YK//ocfKOjPClbuJJh6fUA7SjNAmTTn74UFZoEZiW8ibsGKhWFNk5xY/y67g6EOV/wQteUA3Cz372s9rJ7r777u6GG26ohko8nen2229fSqcDP+tZz6qd0/nPf/7zagSkYWSk08Glu/XWW2uZjz32WC3juc99buVH2C9+8Yuaz9GjRyufyocbb7yxe85zntN973vfq51XnnhSlnykve2222p5OvEPfvCD7tChQzUs+Yh7/fXX1/Lx8uijj9awZz/72TXuj3/843p900031bIYDukYDHWVt/Of/vSn1ZnKS1kPPvhglcN1111Xy0vd5HXvvffWOuJZea7lw7jIRz3UjVwefvjhWiYDJB+GTDr5KF+Z2ub++++vclYP1wwz3HHHHVVurh966KEa5+abb671/8lPflLLUDa+xcEnqGvaUTxyFQceeOCBmg+ZCJNvHIN0cQIM5S233FLrg28yIVPp6IFr9ZBX2k1bq++dd95Z60a2ZEAed911V5WR8uWnjRh0chVHvmTEoH/3u9+tR3WVl7LUT71f9KIX1fTqJt3zn//8KgNtQkfIS3naTlnkiW9hcRSO6qoerukyWYgjH+0K6i8fOkNO4uAHb67VGY/aDX/qAvfcc0+VvzD9Rr3ko/5kRKZJ96Mf/ajyQxZkQg74XQSmGdOEHUOcEuiEOkwMMkNF6dOBdGidWcfTgXVMnUdnYYgYE4ZJB2OcdBYkD/mKw8gqUxr56aTiKEsnl07eOqFz8TJa5DwYFEfpdHTGQ3nydo1XhiKzEWkZC0ZfHGHyVgdlCtOR8RiHygjEeMvHubzFYSjUWb4MO0Mqb3HUQ35kJB9OSro4b3kxJu7hGQ/uSydMOukzGpZvDCoelSUdvpUtjnRkoE7C8CiN8NSfHBlHchAGjLWyyFEcvEin/cifLuAbT/jDk/SRP3AqbTqGWPnSOSqLgXWufOUpS16uycP9tm54JX980QfyFh9PynAtrrqKIw86Io4wcojRF4ZHPOOJvtFj6fHdyl/e0RHXeCIj/JC/vJWFR/XlhEC+wvCC1FW+KV9e7uNRPuqmzq7FJY9WjmTc6rEwjgjwKJ448tXfDErUT3tJJyxtvNOYHNOEHYWOQrEp/ve///06C9GpGBqjbiM2sxgdSOfSmYzO3GcIdBLxjPR0ihgEo3ppk865eDqQa51bmHjixCBkFKtDimfGZCSo0wmT3nVmCMLxYjQqH0ZE3spylCeeGaXMvpTlqHz5uGZYnONHGfLChzDX8hWPcZG3/OStzs6lkz8eIzuzgfAkL3WL8RBu5I1H/CHplKd+ZCuOfDNrwbP40onnmoycR7byd0T4SpuIK44yhKmHcsKzurhOPsqWFxm1chIunlkMntMmz3ve82p8+QiTRpkx0MoVpjw6J666pY0QnugWvqWRv3Klc516KBsPyhFHnvKXHsnTNZJv5E9uaQ/h9DrtmPZXf8QBi0uvMkNSvvylU4aw1BUP6uQaj/IlF9fS4Fm+abPIGo/qgAfnZBL+8Kx8caUjA2HiyZ+zFaZcYY7ykv9OY1rKm7CjMEpk4I0ILYMYKTIyOoQORf0cjdSM8hxd65Q6L4emw+oU8hEmT/d1EgY2cVwzADoUuE6cpNMBxXGd0XE6m7JBXjo8fqQRX3nOxXHUYYXjP7MzcSBxEqZ8YcpwnfKFO5cXyEc6BguSLnEcxVEmnvHufvKSLjwKcy2NMNfqlXyMmlN+5E+OKV/+0qRu0ilXPEd5RSbiAZmFR0ibpB4gDgzrRjbySd3Ec5102l8aOuCobGmcp/2lkVa7Cpeva3lKh1dxxHWNT/flJU7Kdz2MM+RxrG6MfeQvrfYRT3y6pK7yFp4ZtXxTVyRddNS5uokTWctbfsLCIwqP7kVHXAsPP9E/9+QVGQkXJp7zlGdGZ4ZoZouPl770pdUBKnenMTmmCTuKdAKdxbKQpQEjOaNHHVSH0QliZKL0rkH6jaho0g0hj3n3xtCWKd1qPGwk39WQMiKHYb65n/D2eshje07+QzB8SeN+rpUNbd7uidOGDSEOjN0bQ+K1fMJa6dv44roe5hGEp8sJvEWmwTxZiTtWf+FjbcjpjOWxEawW3z1L71Y6LHO+/vWvr8+DF+GYpu3iE3YUOg5FNgq3TGCJIiNbHVSnRTqBeOm0GQm6lkeuEx/prGMddgzyGZbn2rHNEykneSNhY+Xga8yQbBR4CD/yy4zDNeR++AnCr3uQeLmGpBmjtI2RsnyU5zqyDlJG6iteZBeKjFqe0BiST3vehg3RltOS8hwjp5Qtn4RdbgxliV/ti/chwrc4qYtrcbVRKHmm/qGNQPykT1mh5O+cPmQ2tkiZTjOmCTsKyk/JLa8YeXkIbL3cjjGzJp2R0otnKcMsyrlOAbmnQ0JrvHLedpj2fgvhKPlIo9MpR/4tcm+IdJXt7jLyI6M4a3AtfKyO+G15dC2+uMJbGYzVLxCXfJUjTmQuvbzdz9KV8+Sd/MNj0JYrLrRhQfJo066GNt5YGmW1/I/NJC4X8IXIGfBPbpHlEMLbNov+p27QyrbNY6MyTdyUFcg//HGi2TjkuZNl37G+sd1Y1vYJE3YA6TyUmZGj5J5v6BTCdbh0kHRKYFyQTuN+ruUTSgcK5DcP8kFJK67r8NbmmXzSeVH4QDsB5YbHXOOjraPrhEHi42nIe+ImfEiRpfTJ03WbPyfuOnGFJ18QFmrbxnnKGaMgeSW/eWjjjeUXmaX8tNeVAPzF+Ud3XI/VOXy7l7qkfVNXYZHFVhBZtmWFEg4cU3b+ec60KCxryYQJOwSGyvJdlvPsJvJcCXS6jLx1inTMELSdJx10SIm7GpQhXuJzgrke5iXuGO0ElBdjHkMkTH0dQ0HOw5PrlvdhXHkPKbIMhnnIFy+tzNu8E3+sXRIvcYeYFz4PbX5jFKT8KwnhL20VtHy3aHXSMWmcJ03Oc70ZJH1k1lKbr00ani95PmzVY1GYHNOEHUXbAWyL9QD1vvvuq0sCwKi1GF6nswTJLxQMr4do76ezD8taDWvlvx1QT04jZa1W3nrirIbW4LXItWOWn650zNORKwFjjqV1UC3cj06OpVs0zJjNkkJ4WhQv0zOmCQuB7bJe2LMk4F0K72bYAhwwLFH6zXbGzarysKx5+bThO9FB18vHdmEj5e1EfbcTOy2rrWAn23Un2sVM2SqGQZIZk6U8L+QaWHqfaRG6MM2YJiwElii8y+SdiHx652qDDhmaMOFaRpynGZxld7SRFYatYtQxYSo0YcJ2gDE3ErMkkJc7txuTw5gwYXugL+mjnit599BzJv12UX1smjFN2FFkgGPZzqdvXvKSl1SyCWLChAlXHvKs00DS9/R819Hmh0WucqzqmFrv2M6iQhM2h2eaHNWRktOnLAlQfuEesLoH7qPER6vJx70hzQu/0ulK4Hu7eNgIxtKvRi3G7l8NtF28ryefzSBpbX6xSclzpbwYvyise8a0qCnctYyhsjxTZKrO3ofwkp73mBCHJLxd0mtlk/ONyqjN42rClcD3dvGw3nyu1rbaKhYt57Uwlo9+Z/Do1Q4blZCX3xeFuY5pzCAIa2nC+mH0b6dLOztoj9cqKD3nYxnAxgdfF7c7Lz9LYFSWFw7JBznPrGo1jMluo/Lcjjy2A4vmYyPlbYQPcdcbfyP5wjB+e73RvBaFMb6EbQe/21Vn+cQu6ZOu0/fSD/Maw6Kw7u3iibYWc+vM7hkHDc9Ak996jO61gjhkesEp+fEx28V9YdxozGYISwScE5mIR0ZDPRvTq3m6thEdnKfPG8ljO7BoPjZa3rz4Y9hI3K22VdIvur02gtX43go2Iucx4EH/1O/k1ebn3D2/BpDfZXrNa16z9EObO41VHZNbllyMdi2/+KTMhM0hSmATgHVbX0HIC4xbVbArGVEvdfQQ1VZxywK+u+V5k50+2Y4qjuU+YRwW3YuMOLch5qnuKio9iqH8N5p+OzCmAzvNx0bKHIs7DxuJu5W2atNejjZbL3aqbTcr5/acUzJAtBlJH2yhz/m2pcEkx/TLv/zL9Te/FoFVHRNDasklzHnJqn0mMCaYjQjrWkcrC7J07QOmfvTO75r4/Razp3kyu5Zkqf5+24UOpe7qR5/yiRzPoez+QdmemntjspinuspaL+bNXNebh/QbKW8etsrHetDyupHyElcbrCbzNs95uiu9e6gtyzVdmMdXMJavPLdTTtuJ1eqzVZ7XktVY/sP244x8UBnZ5ABpIzCQZP/9uu3LX/7yurN2EVhzxoShb3zjG0u//T/mMSnUKtk8I9B2mGHncc3oMsrf+ta3ul/6pV+qn+ZhcFdb1hvrhFcrOJl/+qd/6n7wgx9U5X7hC19YnbS6k01k9LnPfa774Q9/WMNf/epXL8lmI/q1UV0cynle+vCS2Ztr7Qf6QMI5U/c2aniG5eILWamInjh3DC9B6jBWFxQHj095hMchVqu7NNpIPZ2D+K7lmSVZs912aTYzX9dmxEboeMm31zxUl5/+kfMx2eEd8jte8hC33caMP8bWvbYuOXeUN15Q5CW8jQ+5VobylK8e0kunDIj9Ey/n4L54w3yDeeFDJF6O89oahnEDvKQ9nKuPSceXv/zlOlC2TGd5HcRJ3r78YLWMjC3BL+o1j1HH1AZRlq997Wv1wbUlGBUYom2MCT1ahXSuQ1qv/cd//MfqlN785jdXRYnyjmFe+NUGcuCYOGUzbz8UGMcEDJe6ivOFL3yhxrHk+Ru/8RtLBmSjRn6rGNNnPAqPgcQXYwTCwmPadT08t+UMy3SN4ghi+GCoG66V2fLhGlwzqOI4l5/zYR4w5CEQVx7JHy/ZWQkcU8qI41O+++K5do/TMsB1jxOB1E37C5/X3uFZXGXIW9zIJ3kKS9wW4ofcS1mgXsJbJJ68lYGn1Cnh4J6w5NUivLQYljMPkcG8+MN8g9Xydy/1sTz3wQ9+sP7c/Gtf+9oVjgnkb2JipYNz0mc5p0VgrmNCGMMQg6ISlmBUYIh5AnqmoxUtOZoJfPSjH60zpje+8Y1VbhR9nvyuBblGl3QEs25LAxwS5+RZm/B0aCNosypLB+69/e1vXzJ2i0Tbbi1SFwYjPK/F21r327KG5Q6dXQwhDPPNtTzIFMgOhLXxXQ/DYFh+kHC62iL54A2fiYfv6LWw1CEYM9bQ1qFFrtvyOaY4E+HqKt+2vLQRJA9pwL2WD/cTB3I+5Ml1qEXSj5U5jHs5QCaRV+uY/s//+T+1L77qVa+q38KDlm998bvf/W4dVLNZfsF2EbjUxc8Q5sB5hOu8vTdhPlqFdN52hFxf60g9La9wNjfddFN1TJ4xjUEHimFpnbZOtSjSacco/YARxJt6tenSN9o8zBbaPDZCoBxEJhw3YpTbeK3M8MfwtE4MD2YSZitZitsI1EeZZjTySnmpq3zbPPEbGUQuLYSnDu6HIisg21BkIB/liqcNLOkhuiVd+CMDJCwUfqRvz9vrllqe4gRTdtI4R87xljyhvXY+JOFr0Vi6Ia0VN2j1opVpi2EakE48x0VirmVU2QCzaZgxDCszYRnpJIhCJOyZBPrBIPqy+I9//OM6CrO0CQwM3UIQHXOtY6eztHLcaWqNYkt4ixGC8IbcT2d3Lp/2eh6l06fcnCNQZsLFzXOcGJkYGhgaZjJnVMUJhOe65R+NhSHxOYCW3xhw/AnLji5hiRPEkctLfPfk5RrwjHfluI/nlB0kbZyBc2HhAeSrrIQnj3mUPHIcUpD7OQdlOW+v8S8e/pSfdhuizXs1tHzIZ0htPvPitkgc1NYpxyBxwGDSTOplL3tZ/frDojDXMUXZoWV0rMITNo6hMlzrYCQtZ3JOPqPveiiD6FXChx1/URSDMiRIX8CXB8McbVsfDteuQksfMZpJ3xpsxzhk4THcqXviuhYHT4wuUpa1f+UoTzniZGTPMOLN9nzLp+IKB/mFn1ynDPlIC5FB6yQsw9otqcyW37SRh+nieB5tZie/lCV/D9DJBW+RC7iHlBm7k7zV1XPubFnGX5sudW/1JOeRaytLx9RNXkh8uqluZBUeIPk5yse9lBuk/FYWiYe2CmWPYV74GNq4+ARhoaC9Tr0NOrIpJUj7tLSdGHVMmEljBm0Dj9GE1aHhorRpxFyPyRNdS0iddVjGNZ2fDCh8q/RDjMlmpwl/Q4J0QgaNY7CZ5Zvf/GY1aJa0GN5PfvKT3ac+9alqgGM4U3+IwWK8GesYObKIc4H0OWFAbsC5f/3rX+8+9rGP1QfTbR6AD+F2XH3mM5+pm5fEkT8+csy58nLkCCID9xlsjkhd7Jj80pe+VGe8+NJmyjXbidPxjPDTn/50lY28Ijc8cVhf+cpXKm+u5eG+fFI3R4ZQ2fhRNgdLznZ0Ki+vWYjjGu/IeWQnz8gvvIqjPGVIy+HJH58GGHjzEnirn0F0wj3tIU3ClUkGwlOGMtUxjr5F5DuPpG9pHsbiCpuHxAnIBAkjjyB5qJd2116ejztfFObXesKEbQCF11mNuO68887upS99aaWxbadt57gS0RpQBvs73/lO9+EPf7g6IjMTxtmD4ve9733dhz70oRpH51Z/hsx9nT7PRBhwcb/4xS/W+5bpMjKVjjycu8eAMn7CzNBsSGKszSLkBdLij8PjuDhMxNgyKoylshlQBlO6GHbGSfmMvnPOz46tP/mTP6nlqIu6cU7yzmxDftpSubaBq98nPvGJyhe4Vp7ZlBmJmQ9elIGfGG71FIezICf3xHFfOCOvLEtLQCZ4F4akB3mTnft4ll79xI3B9cVsMv+rv/qr7vOf/3xNQ56crldj8BC+8EEm0uML7Cq0a5S8lO2IxFWGspXhXNiVgvSvYT8jH2jDw7t6k08cePTZ/Za2G3v+qGB2PgoKQUkdKR7jMmHj0KhZkiBDWzQ1qM63Ew17pYEyx7jq1K0xCRgwS0E6go7upb8YqCsFeEF4ZMQ+8pGP1M0cdis5cgIcjrr8+q//eu3YZhhf/epXu29/+9vVuDEA+tPf/M3f1HDnPvXCsdAFdc7PDcjPTEQeZmX6IBkpmwOQjiMy4o9jYpAZWSNdMid78RhY8udgzGg4U2VIrz2OHj1ay2Z8lMtp2kWqnW699dbqlPBClzkIuqyenj2QCf7krf7uy1NdOSm6j5TnXUjvsslXWZyAexyeenJgZlfukQ3HpE7qoP54E1dZ4uFHvcXnYORFRln+wwOdw6MyyUW7cbzax2sw5CetOtilhg9lArmSl3Q27ygPj9rTIIH88OkcbxkMxNE7bgQ7bQ/IA6kHGXK0toFnYAE5al9Eh9gtgxD3hjxuN8+TY1oQnqmOKUpMuRkLnVun0Bl02haJE8fEgDEkV4p88A340Z7f//7362zJaxQ6trY0i9LZGbO3vvWt1TAyopb2HDkcxpDRfs973lONmPw8XGbMU1+GzTtdn/3sZ6veuKY7jCjnZmnl4x//eNUlRtMyFJnJA2+uyVO/FZ/TxB+DapYnjaUxS2+cl77NIKet1INjko8vAngALm5sgbw4P45O3pyCNBwm4y4P7Yjw7YgvjsTvcSkrgw7xpeMEtT+noNzcJy9yDH/qbcaTF7blrd7ah8NRBgeofbQFpyVtZoPucUrycY/DUydtQT7qo62U6b50WeZ70YteVB2QAYU8oq+cWNrMPXWmAwy5z29tBOq4E5AvGeW4mmOCxMs53SOLhHNWya9Ntx2YlvImLAQZFTNsOjJjsxrSIa4k4Cl8cwI6NMPF6fz3//7fu//0n/5T9z/+x/+oMxFGNYbYiJ+RMmpntBh8hkxaxiBLQ+LEEDMYng2ZoSiLwfRMieElxywlcQgcj/sf+MAHapqM9BlYZTDEnAjjaunqr//6r6szYkwYb8+iGFUGN4YmTo7jQ5yTe8g9MweDDHmqP6finRj5/eEf/mGNY4b1Z3/2Z7U8z7o4EbyoE5kA/jkBcchG3clNPTn98KXuWWbj9AwGzOJcc7T5Ygi5IbxxNnHuHEWMZwwxhxH5k3vqzJkoU35xNuonH7zhH6/qzTk6N3v9y7/8y1o/+ZE9ftX5aob2oCtmhereOiM6jrbbKcHkmK5yUJIoS6CzcwS5l/u5dj/kGhIvYDgYVaNXhm8szXogLkOi0+us3i63jKPz4sc9ebb8BxQ+fF8JiIxaOeCNIbOU98pXvrLOLOJgGD1xzIIYPLMLDoQxtWyGyMSSJUOvvuRhNhUHaJnMN8rMsOUlLUMBnJMXIxEjzSHhS3mcv9Et0n5G/8nbffx6Wd7sRVsjPONBHLxzSDHU+HNffpzC6173usq/vM14OCSOQNv6sonP3CjPLEod8Y/fzBgZNJCnMHqmHHUlx8wy5IHocwxhZmyAb8tw+OCEyQffePiVX/mVKqs46siULppBqZO6kH+MK3mTC/7lZyAF8iBDaekunsw6yYO83DfjMqv4zd/8ze53f/d3uze96U213lcKhn0p1y0NQX5kQG/JeBh3LM12YHJM1wBaZWG8dEBHSIdLuA6eDiqsVSxxhVFGxsao0+jQaEk6FCcSWguJp5MzcgwOA8U4KqvlQfkMjrArEakL/sgwcmaMGWqfUOIkGHWGiwFldBktcclAejIkC8TIMW7koe4xvigyYyQZW/Gkl5c8GElGNc9etA/jwVgzoq6TJzhm5sYgy5fhFA+vaVvtIJ48hSFp8ZjZgLTKV391NZqWlpGO08WvfHzpJBtexBUvjiXHlCtP/ClHeYHy1ZvDJVP1xDcIl1Z8fHAOL37xi6vzxZ+6yT8QT93wpxy8pnzylk6b4kVfcHQv/QIPKT+OjaMD+alnnLkyriRspm+p+xgi01a224XJMV0j0DljDClflClHo3UUwxBDk/sMhHOdjUMyW9IJGVWdXXgMQNKsB8qJAdOZLZEwmvhcDTuh7FsFntSD3BzJ0tEyl2cPnBKjxrByDpZyLHVZ7iFTsylxORwGm0Fk9C3/kLN8GTJ5IveUIX5mOs5bo65NtA3STmYeHuLLM8+D5GkmIA/x5Q2O0qQc+hEHA+JmtKw+2lLd8J40CF8Ms3MzJ+VLwzh7zvarv/qrVS74iOxSBl1iwMnFspeNE5blyAsv7itXGjppmS6ftsIDJ6ls+dIvMkl81+I4cipkF4QHTkZe6ko+6qbMVs5pFzK2ZGdpTxrOjYM2KFHHV7ziFZVHS6p2/NnNqB2uRqR96I06aj9OG8b6f+JvFybHdA0gHZERsV7veYIlFEZJp7TkYB08D69bULIolU7MOOmsjAyHYkRIIXVO8VpaL8S1xKLT6tCMsE6+FsY6wJWAGDWjY0uTjCr5MG4MGGPJ2OaaXOOMXSPtEMPnXHuRDwjntMwuGQZtwSEwEBmFM4rKxguIa5TPsCqHI9HuZhcpJ47Hsp94jK86MOzyI2/5ITolTzM1aTgEdY5jYujDo7RmbWYO2vWP//iP67MseXDWnufEKeA/DhLkqXxfkhcP73GEzltelEMngR6Jpzz3o+v0lXyE02N5aw9xyBHkaRXANUfuGRs+8EbX6SpZKEu7OicH5ec5Hploj8wMOWFlS2sw4pmaJUY8XClo+1N0YqNYVJ+cduUtCBSZ0u7Erjzp06F1GiN1BslOL/nnGQDDxNDp5AyDzhoFlQceOQ2j1SxhMH6MlzyMaDNy1hmDtfh3nxFQfwYBD4w5A4eP8MCYqAMelO1rxsqSfq0yFoE4AcYKYjQ9p8lyGgPnPifheQljxyhzThwC42tZyz1g6LWHESkD6hoYWTJm7LSBctyjN/JgQF3Lh3EkL3plJ6MyQfubpSE84sk95Rnd4xekt/SlDtoCqQeZq4sy5S0d54Nc0yd53nfffTUtfvAsrTTK53A4ByAvslB/y23OxWW8zaTNLpSt7hw5mZiJqpN86YN04tAf9XLPeeonT3Uha7zL3zVS9+hi2kkeHAwe3ZeH+uE1beM6vHKI4mkTz8I8j9IedFl+7TJe3tnD80awk7quXulvbIYBh/6tDvQh98KDPqvO2kOd6N08/raT71V/jwkwZqTN0Gm0sa+LT1gbjC2nZLcRGbZfF48ybAZpPg5D/nZGWWrQof7jf/yP1QlY+rCjSOfRUXQ0xsC18hlNyskZeaZkJ5L8GEpLMe7L0zKGMA91GSN8DxV5HuSBP7MCHVVHYGw4Q51ePgwdx2qkqQO8853vrJ1d3tup9JsFx0neRvyAX/Vh2OMc1EdfAcZbGv0nMwhyY0QZU22gf8knzibypC8MKNkwGPLl1FO+fLURxwXuSUum7hlcKEOZ0gonS4bJNaMrvnNl0RN1wIs05O2e+imTfsT44imDFXFj0PArL3yRhTLkKT3Cl/rSzTgwoG9mGHbeyVs8s71f+7Vf6972trfV/kI3lYkv5dInZciH0cSD+/SXLJVr0EMO+GZU5Y1HadVDPvKTzjUZuiY3PJAFGXA0HKcB3/vf//7qDPMMS3/AR+qn7tqV0ef0yGCj2Eldx6M2wy89fe9731vry8kaTLgXiGNnotm8AaN+b3AwD9vJ9zRjWhAouE65UzMm+VAkHVNn1Mky4osSOtdhKadREF4onZmQDpZ4OqH7ro0MnVsv9zUDBszoWOdXbkurgTHQ0RkLHR1vOoHwGEL3hjOmyGet/BcBvIRXcE6ejCOjJ1yY67Z+jBXDyqGQJ9m1hlVcxjNtmLzdl0Y4w+lcvKRTtjBxlS+teEg8/dXRPWHiycs1SjqGWZ5AN1KeMAZdPsoLT9LgX9nhDxzFoyPyFJ8joPsgbvJpZUhX6Rzdy2yDsfTbbwZR8pMudXBOZo54IYfIT5yUjSIvslG3zHLxknpL59p5rqNz8nNPevrLFuorBgRIfvSWPPAiPX7UQ7rksxFsNP5GsN4ZE4hLZqmfiYl6zcN28j05pgVhpxxT0mYkzAjGGHkzXQdPx9TBjRLNSKSzvGf5hGHQyRlPBsKIzyyLQhrhcxZ5oO53/y2vcHJ4bzvxasizLiPw1pjEUCCdwP04JiPSdJStyGi7MKyn8/CeewnDN5lHRjq/mSJiVHX01lk4Jk9Ivu61+SYMSZ/4iZc8Ue4n/xxz3uabfMauEzeOz7V2S1ltXFA3cO2+eC1f0gfOEf2jn9rcgMTRrIT+0pfwkDxDKVOctgy8copDHto8ct62k3AQ3l47xpnpv9pRHwjEb8t3Hp6DlLcW7SQ24pjwoi2lcc4h090xbDffy1xMuGKgo8yjIRLGqGfZwdKHZw8cjzfkOSId31KRQYYNEoy/ESpnpCOJI777HJLw3JOvjs+ZWoZKhxzjZwzixWladuGg8ZuO2NK1Bh1dm5hlMrbOYxzSpq0x2CzILgYcMYyBa/dzD42hzQPoAePuOMS8PBgy8VNHxjwDpTGIZ5BiZvSGN7yhbi33XMpONzJjNOUZWY2hDc8sBQ8o9+gxfuI8lIvcdz2me5GZfMThJD2by3Mt9xLH/RbCh3Q1gWzCc2Q0hp2q2+SYrgEw8oy+2RCF4kA8SzICypvvliGMdhgay30cBGWzHGEGxFGZrcgHKJtZSzogZ2QdWscUthFlxJOyGIWMbNv06eAo5zA8Xk1IXQLnjGbCyCDGcatQVspzZEgck39ruNeD5CddnMJ6oZ3pjbrGmEk/lgfe6KMjvTBjyvIkxLmg1aCcYf5kQd/DRysLpF4IUl/UQnx9C4VP/Bng4VefMuuQn/IcxblWoN7sgpUOA1cD1UVhckwLRjoG2hZcLAZpl63KXoz1vkb/7oalBpsHzFQsH+pEjKHpuB1LnhtxNmZWlusoHQX0fMrSnfjh0TWnx0CIR2EvhbiX0oUL57rzF84WJ3mke949z+nue+mLu+c8x5cfDtbw0IVKDFA/0p5nLK42MGjag3Fs6xNDhra7rmm3GN+UE+OMEqdF4oXwHL43gtRlrB1TfsDA45GexviDo/QZzLR5tBAWxyR9wpJGHkMS3vIhbAzC5cMZ4aN1kCk3s0HXkXdbv6sRZKkerVw2owdbweSYFoQoctBeU4QcWxpDvVf0PgTnL5TOcL7vaDqJfC0Z+SRL1umVR9GMIo1ojYAs5QnPw23hGe0aFYobByVcnLbjrUdRaz1LuXv2lBlC4fHE8RP1eVOc2+5dxUBfKB2h5DlWZ+nXU85aaGXanu8k2nLaTp7zeZ19q/Vt04eHzchRfDyGz5bfzeSFWrmTQ8JbuE65qJXdamjzXg3yl2fKn4eWt7bugTAOq+UvcVpe0gbrIdDH9A/9LGEgvL3eSShHXSylsh8GtPp/i6E8thOTY1oQNGKr3I5R6CggGirjWhD1/Ll+SYLimA1xKMhDZLOmN7/5zVXBbHIw6lOuWVB25HE+trZa/rOsZ+eYtB6IukcxrffblaMj4j3853wedhXHs2fP/u7subPdgw89uPRhy2PHjxWH1RueYKc7XRzqopDOrY4o5afdY9haRJZDma4m4zEoSzmRr/ShXK+GxE0bOxr0hHdInFAbBtHptKvwsWsyMPCJkcdzlvMgZSZtmwdErtInXFgGUcN0ylWX1CdpwnsIcg8yM0o+0F47l1/ClD1W/jwKOCX9tB0EgrA23k5CG6hLNrwhNgTUD+0kJse0QFAqjZ2OVkIKFeW96CGzX7v042fLv2C6XujEZkgchxcF8z4MsuXWA+UjRw51H/3Yh+tSnaW73/u936vGwK4cS31ehvTOkverPIT23Tfnlvs8VxJmUwUFtXwR5ewVdJ7BF478yNqxYjh2d7c+6+bCn1lbbxT27i3OenefT3hGOgbarg4gH/lFtq7HjMJ2ImWmk4dSJ+U6H97LfQh/MXKrkbqhGLXUVflguczg5HKglXMcUOqf+maWELRpcmzR3o8MEpbw9jxor+edQ64d0Wr5h+/E2Qr0Z9Q6QiCzRYHuaA9L+OyDjVF5/rwITC/YLgga1RZsL9hyFJbZ6FmeQVy4eKE6it1FES+UJjGbGBs31E58sTVcwnSI/j0NRp4D0EHMdij4ufNnuscefax779+9t+Z755131xmVb5Ip87d/+7frjEhc6RiyjM4yoneOlL/SkFKfZX5WYtnIcEwPFqdI0T3/qksDxcGdONn/cqvlvpOnTnVf/9rXu5/85IHqXM32YrS2AwyzXYcgX3XcCmKMIpsxiBOZOZKtuMqOrBmgIS/uJc95ebeQt3ykS9q2bO1I1xy1dfhZT94gbtCmacNhtfzco6PRM06yNXZeU4jTCu/Jb1gOJEycxJMWEibOMO3werUykkdkOszfdc7RWHnrhXTqTxecRy/0VTMX/STxNgvyjw6y6fNesHVfndksL9naLGWnpN2TWyl/vZgc04Jgd4tG9qIqGXJMF8tM6Wc//3k1mJTOMty+vf2LkheLo9q1a+UyD1SluHipYuxqfBiFYoTsGNq7r98Ndu7sufrWuiW0645eV5zDHXV3nge7HKUZl06WTkFBOUz5WCJ0LV95xphySr2SzlPUZcd04cL57oEHH6jvSekAnBJH9LOHf9Hdfsft3dEjR+ty3045JvWgw5YS1St1hWEXGOsS87oJmQSJg+e+DVc6hxwBD+67jjFqkfQ5Xwvy1s6QtCkDuccokSv9syyjDVusVk7bDm28NhxWy4Ms4pi0h+VkPxUh3CycY6JbZIJ3SH7KGZbVIu0Q+Q55THiQvIb8tmW099r2gpYv521cYW0+G4H81SVyICcDOYMJx+S72fzX65gAHzZEmTEZ0HmH0TL/IjA5pgWBY9LAn/jEP3a//Lpf7t7w+jeUmcy5OoN67NFHurvuvmvpV0xhz27PclZ2Jti1a1lxllAcVaJSJo5Osx44sLc7dux4t2fvnmL4j9RZy0MP9b8HxBEdPnK4O3xo+e13iDpI4/zM6XP1PuNp59zp02XUvW9vdaB952AQ5neSYprrjG3Prn3dN77ZP1/K+zyU/dOf/mz36le9uoYdOXqkOqb77/9plYOZXNtRtgIjPsuWPqtERnG2LeZ19nnhrbEbxiE7zoZBc28YlzzFicEL3JtX3mqQh0GDtBxOnYWW+uEhgwmG3+jbM0fv4tie3aLlY4iWpyG/LVbLg9wZWryYLRmJ+3l54Zag3YuuMaCQ/NaSizxgqMcgXSt/SF5Dftsy2nuLcEzkUgeRM70hA3aD3fX8l31Iuw7rs16sxzG5hwdlaCc8sBleLRF3EZgc04JAjnbCffazn67PbLxEeOLkie7df/o/66YASveOd/xmXeLqLloeMNIeKl8/6m5xsTilFhS633Y924pbnIkmLvpW8ztx4lQ1VBTcfcrnvmOWEeWxf5/Rd/8ttf37983CZzvpSlx89MuNBbuWZw1DqAecO3ex+9pXv1bXql9y30tqPcnjf/3Zny89w7r3+ffWL6M/8NOHquP6rd/6rWqkNtPJh+CYfJPNN+t0MCM/zi95t92gLU84o6fDCnet0zpvjUMMYwtxk2/ydJQXkkZejuIlnPwdoT1PmcLEb/MUbuk2563cUo4vgTAyZshG4GTcIryOIXmthdXycA8feLOka7bkPTt2xVfIkzZ1gMi1lXULcaWLDOPwh+mG/Oc6ZQZtvJYf+SFtMZZ/ygfx5/G7GpJOPkg/9asA+il9JSP1w8Nm8geOKTKyemFgYKVGH+SYMoumY/hh9w0g2S+DGbO2RWByTAtCHNPnPveZ7sUveXF330vu65586vHu3e9+d32n6FWvenn3u//X/9XdeUf/ySfNMjY7KmOx8n9ZKdN8jnECpZvU/xxR9NczLFjueJcqtm3b8uCEKC9URd6zt25JtxxoJpU8du/G49odRPyzZ8/XGYufGdDJOCaO4v/+v/+/3d133d296c1v6l77mtdWXXvwwYer0cyMSfplvjeHOCaOTwfXEVczzDE8KTc8iBMjBXEabVoYGq4g+SSvUEay5G7m4ChOmyYQF2JEgoRD+JEPHhgaH0q1nKzuHJPnFsGQ/yHa8jeD1BPww9j5YK828S6dWRxwXBD9Wy+G8m7rM5TfZiB/eQ7zl29bN9hqecnTQMOHbemDGaXBbPRiqFfrBT2QVv5jjin5pz42S9EZ9l8cu3cXgc3VbsIGYfZTGrrMLDS4WYhlFZ1z//693Y03ebDpwfW57szZU93Zc6frTMcSWEuW0s5fsFlimfoXU4WfL3SuxJOuJ3mdOXeqOJoyLS/KVnf+lbzBOZJvUcN6dE86fNbrs31cS45421UckSO6eNGurwuVz7UIf9LeequfEHhed/Rov3yIGMennn6q+/nPfl6VPwYGyCodZKuQj7wzEoxDgdxLeYwjo4AYhUBa8aR1HiPa5omct3AdSv6cSNJLI1w+wpWJct+9HOmOOOIGwvEantw32va+WN4Zy71Q8pwwYQzRYfpmg4q+2faFncY0Y1oILixtfvjEJz/R3XXnXd0dd95RZlA/7B544CfFqBzvDh85WEfylpcYv8Y+r0BVmIsrxxOaMEt6HIbydu/ZXQ3/6dMna7i1a/F8ISLG1cut9eXcch1FdBTXu1HutWVxLn1Z7e6jltFLxzl9XYohvND/Dg5F5+gOHzraPfro490XPv+lWt49997TPf/e59f7wjNjMrpTzmZHiAH9tYxo1kCH8ztG0Na9RT7B4rlMRpnIOWOvbsD4G2nmKwDCxQvafJ0Py+E0fA5Keu1f22ZWb3nlGRE5pUxwHkemPO0tTdLmPHE//vGP12d86j98xtTyO4Yhz5tBKz+DMt9sNIu+GmZM4T35JH/XuRdstbzkOZwxefUjckk9Nwq6Jq3815oxOVrNscqh/3jOxQcsApNj2iG0YjVb4ph8nZuiWca68aYbu+9851vl/JYyXzlbl5q80Brj04+IVyrffGUvilaX4Qp1vWMSl5LJK7wwbvJ1vXt3r+A1zex+H767boioI/NzZ+smB45EuPza0Xa/VXyIludlI5p0jjrcwQOcwu4yczze3XLzLYVPOwDPdjffcnP31JPHdswxfepTn6q7izzstTMtMm2PZIRH8em/shGnw3HkXS5h6uM5iXPtp23joMYQGSvHuXKUwUB7ZyxLbO4zSEarlrtcMyCej9ER9+iUpRYgL8Yrhktbt5D+ox/9aK2T+nNM0qQt14L02wGyxduYY8JLr/drO6bwHTnmmmyHdRJnq/ynjOSTMoblw1bLS56tY6JbbG/kop6bAflGRms5JmRlRzxkCV7cRWBrvX3CJUiD9ka5X8LLaM6MwwaCJ57w2zN+pOxi97x77u5e9KIXdLfddmsxZpZ0esfiXaQ9ezwQ74k+5riS+njFf1Tas2dXt2dv6RilLEtxe/b26S9cPNOdu3i621Xu7d63u5RQRvyFuj1FUdnQ3WXmtKs4D1TCzu8601+XtF3Jq9tT6lDiONY4hTq2r1K5NzvfvdsXB0IlqPCzbz+eCh+F9h+wfX1vOXbdTTcf6V7+ihd0r3jVC7ubbjncPfnUz7tjTz/ZnT5zsnewdVNFLw9yGVJkvB5oA04khq+dlbRGRNuJZ7bkwTPDgHyl/ZOf/GSddXhWyGiIa9cSx+ErGrbWcjJmMcGyPvSQd+47N9viNG0G4ISSb/gQZsPGpz/96frTI4yU9Mo1mDGadYzBR+qTwc2S7s3qqc6bNWrbhaFMxpA48yjIuXqi9h608XPexmnD2nBY7V4QuSJoeXDM9Wp5rIXNptsK1Ee5jnRqK/xvBtOMaZuxLM4sj+3uTp06UQzOsTJKfKT733/+Z9WQ3HGnj6y+o7vu+iMl3vJIEaTLTMWSmpdm9xUvNLp9vNwLzJpa1I0M1bD32FUULEtzZijB7uyuK2h3A+ZcXDw5F5Y61rCWpZI3H3YJioMxA6tGcc/u7mwxrpad9tpyXvg/eaL/Abaf3P9QMb7f6/buOVh/XuNf/ot/0ScvhYxuky+IjNdCNj94qdiMwbKppbwx9WdMOID//J//c51hWMKwQ5BTkt5MzrWZjZ1u8jb7Mpq07GfWlCVZ+dT2LDMoxzglsx7gmIxG+3r0GxqkzX33/st/+S81LzsX/9k/+2eV56z7W+YzUzKaFT5Wn4R5h84WbUtCl3PGRA8yY+JsjdZ/9Vd/dQUv6Q8ZPARtnDY88RnRFvSOLIW3fYw8oc3fcV5Z7fmYY3e/bW+zZufCk28GDWtBHOkyY1IHbWw3ZWZM68lnDJG//FebMYH6eMXFrNZSs1mtT5YtAmv36AmbRq/MRTGLtbbTzUyAQTl0+EBx8nd2N954XTHCRrAXi0GyVBQqClzCdpUZyu69nheVTmSGYvNEV5zVxbNLlM0PFy6cXrrniDglM4tsWBDvYldmQmXmVDdRFLKMKCyknEvPxUm8nNskUe5fbGiWriVxON767lMxuhyujR7KPn3meDGsx0q8s92NNx3t7n727ZVfGy8cOb0lx1dnT/Pg3pA2D52XMTBjYdT8oqpOqtPaLus7gjqvWQ7nIC5D6xliNnWIbxnEMx0/O2IZjVMwyDP7MQN73/veV3cJMmBmPnap5fezGKXwApwIPszKxOFkOTAzJ0bDswBOD18trYZePxcH5ZHLvHITjm+yjhHWDiHpQ4k/dkRkF0flWr5JKzz3WoeVtGgeyBklnfzogOs4OmGQNpCfNNpa3NzfLNbicbtAlw3A6F8GS4vA5Ji2GRSxVUZLd1HUukvq5Inuphv7nyffO3sOwWm1xDDbUWe2ZBbkq9znitLbNXf2bHEo50qnKMTZLO/CY9D78IT18c4XKh3aDjr5uK7nlrV0dru1tpEqH8vkORUCmymc+5L4ubPni1M6U2ZLxaFe2FU3Q9xww03FWPQq2c4EFw1txeAzIKBDchyujVy9DGypjwMx6mSMOCbv5SSNtmeEPAcyK+CYzK58bUNcDsvzLo6KA/NFCvfzs/iMnPRZGuSUzMTiwIxkGQ1OCR/StQb2akD6yRi0QduP0q9agyyO8xwh12ThGOcWpz0229ko2jJynfLlj9wLzy0lbsvzlQr8ZgXAM67h18V3EpNj2iH0Smhq3xtlSmjZhaO6/vqj9Q3qumHBzGZpRrOSzBLMnOpMafZMxfOjdmZ1KbXhu4vzQ3vqcWW8Jk7JM2QQOaT2fktjcdMxQ+mMUB3s2VK3cty9e1+ZLdaHW+W+u+L3RkQ9kbQVq86Wth9G5pwDp2OG69yyEyfASVkCNDviIHxWx2hSnK985Ss1jgEIw2OGaLTJiX35y1+uzoczueeee4r89ta4ZkBmXfKXByPACUkrHUeGD+ksuUiTMHzaUCMPZW7E0F0Oo7jUniNwL0R2mVW4pkfkQWaJg38kDsy7Tn4Jj15m1iM8zkv8eUi5SPxQ7oW3lAs5mpnV1YJC9EdbZrY2hrX4gNXibAfkryzOyO5NeonvRWFyTDsIsx+zBA3sGZGGdX6sGCAGj6JCdVAtzZROB9pLqWcdIOGZWRmVXSwdqyXhK85n1HdOS3v9MXnk/mpUy5Ln7IjWnbY4oWoAZrM059na7tnW/n0HS6cmlz01zko0zmmBYPA5C+3j2Y1nO2a42oNT4EQsp1k+89xV5xU3xkZ6cYVL7zexrN8ztp5F6ejOxScPMyh5cTyeIzACDJ3lPM+vyIDuyM+AhmM0m7I0KK1wz4xiKK9G0JVAfcmGDIE841gSLs5qupH7rUOq+thchxK2Xuh3SNuZ0WpLsk9eKH0b7wak4jhv67kaWl6dJ117vpOIbM3mDXzM1A2cFoXJMe0gvNTqqwmOe2aOifJSZiNtKDHELEp4vijz3jqi2r/vQHdg/6F6brlvd+mM0iIdoCX5ttSGLcUr6dGKeAkr/CkD1fDZ+Qoq8Twbct+Ro6zp2zjFuaD+fkP79peje75q0I8YGdI9ZbbEGZklOfomn07gK+nQd8B+BLqaAdoJMCSWyhgTD7HzwVOyBIMKsxmGiaHkPLQrJ8TpaKcYLQ6OQZKPZ1LqyOHo6OJwMJySTq8M6ZUnX2HZDh6jR35gidBOQHmRp3TSXCsgC/VVf7sj1dVGFM5Y22gjMqEfZovkaSnVPdetzpC/GabnedmsQlZkx+gK0x/JW1yIY2vP4xSQdsSLmbClVGm1NX61szitE1UX99XBu3QGOPQr+YsvTvKHnLfh7b0ch7Qa5DWGeWnJma6hyGYRmBzTNqNVEDOC6oyKglI+ne3QQR9TPVU7AuU2g4EzZyzVaY5igIpBBs9ezp/zrKIohN10hS6cNwtpqSjbCiqzmnNlduJF2nLuhVoTEbQcvxxdV1rOQ3mjVPihs/15Odbr2b2lOOo8C28I6mxolk+cUepV5VRk46vnv/jFo+Xervrib59fLxv57xS0y5A4iwwc4iCEWbLzSRYzFjMX6+/a0PKac5+MsRbvnNNhpBginVoYQyi+a8aRPiCGNDvxzpXOH2OmTE5QefTIPfxIw6gxiM7dFy7N1QY8p78EwsiA3O0Is5vQbkgzVcuntu2TLRkwtGRkM4ilVE7GoAHck494ll4/8IEP1JmutMqIc+H4ODT51FWIAS9B+EScjHQ+CqyNtSGdsbTqqGxtksGkfDhHaf76r/+6PmMcOtA4IMhxzJEM42wU0g0pyHXkkHstn4vAnj8qmJ2Pgse0XOBovdzLhRPWg0ZpdvUPwp9++lgZHT9clNUPge0rhupEd/0NN9av3/38F4+UEfZTRXkf7x5/7InuiSefqiNu14884h2Xp0tncO0dKCPx0JMrrsWXj3Dnjwl7tM/z8WIQl8ITVu4/8cTKPC6lErcce/4eq2n7NE26x0qZ+F5K09OTTz5dDMWJmuaxks9T5frJYgB8gujkydPFYDO6B4tcfl6Niw0UZoxeNn3RC19cOkZxFkRYDEz5T5orML/DrAxnBPBupOol1bzMPAYOQIc0y8EHp6KjWpLzcyWWzdznaBgh+dlGa4u750MMkvZmWKWT3vKcmY2NE87lbYefpUBkGc9uP2GMmXrJn1F1X9l4hsyE3ROmXLM1WM2AMM50ygYOfOJhvdguwxRnoT3YFQ6aPIb8O9I7MxKbRNgfMnL80z/90zqrNFBgk7SrepG1ehk0kKFrbRwH9MEPfrDmof3ImQOTzn0DCW1t5qlsPII88Kq9hbkmew7I6wN01m8UeaXATCkzWDoRwy4/fODTRpgPf/jDSz8hoQ0SJ2WCa3qoHDLLi910KxAHDTEWFkT+gFczUbIkD7Js6x2H6qhOZCfuIjA5ph3DSsfkXZ3HHi9O5YnHSse5uXSqG+tI++TJU8UoP1JGbPf3xhsVA0/JH3v0ie4XxSn94uePVgPv+pFHHiv33O+JM0i65Xte2EQl/i84EnEKVafU33/kkf5+nNNS2QN6VJ6/KOezcmq+0haqDi7lc1iFHn9kZV6c1xOFOJ4HH3yodLSfdg89+HAx6P0Xi48fP1kMxPGS72Pd008dKx3w+tJZDxcjcUsx9i8ss6e99d2nmSBnx2XM74QrwzfimHR+sxC67tkSQ854utaBM/vheIyyzZQYO4YN0vkZR4aOoZRePvJgPMXFB6cjLEcGKMaHQZDePfwyDpwRqLdylMvAyTPh83ClO6a2DOdky3AistIWjLhZjx+t48i1kzZln2JIyZsBzbUZqqU+m0+8w8XJy4cskLYUV9uKb6ekshGd4dSiE9I5VyY+1MUvA5hJi+c+O4mH6Bvngj8O0LKtGRY+6J/6O8oHKT/EWUrLQSmbDBInaM+DsbBgzDHR5zgmdZNePcQThxzouoGAuIvAsouesKOwCaIuxeze0z3r1turETp9+mz34x//pPvRD+8vSnu8KMXB0vA3dkevowA3dtcdRTfV45Ejwm7ojro/I/fEC7lOeHs+LwzV8lahGneWdimPJmwY/8jR61fQ4cNH61bw66+/sTqcPbv31ednwi0fWtL41je/WWdaN910SxmV3VaNcz9rKJ3wMmwbVzbjbSaSjQtmOtqMMde54zDcc2ToLatBjBfjpMMj+RlVczCMjHRG2gyyfBk2eTIG0jMO4gkXh9FgJMwilO86fHFydOtaAhmoJ+Mcw8y4kwGZqLt2YugZd+EoS3KQ9jB7lQ/HzglKx+Bb0pOWc4rxFWZGY+nQ0iCydMixBfhRlkGCdmWs5WOpkTNSlvwMBCwthsQB+m22xgGadUkjT3UO2vOdAh2LE2vPgf7iQT05djxmULQITF9+2GYsi7NZG951ocwIHq1G2OdlXvay+2rH+seP/2P3s4d/VkdMPmL6+tf9Sj+S33egbiMvqtL5uQqKfsA3fAry8xVBq0xjTVk/xDqDLz/I82L5u1Cm6jWspG+//DCEuHb4WUpLWteQsBbDkU6+XnHwwOHu2ImnumNl1Gg2RMmN1qz7U/oXvOD53WuKbh17+lj/rbwbb+je8pa39Pyhwnv7Qdmgrf9KrIzLKIx9+WE1MGiWNDgLbZSy9AnXRv1ZynMtLmMonqN0wtKhjeJdM0LuaVcQn34YtTNyDKf04imDM3RkHD04l49lFQ6PYxJfXEf5tqAT0Yv2yw+cohHwejFfzhuDOjN62oNdsbRlxuHLDykDv+Ix7J7H/MM//EP90kacAXn/7u/+bpUleQhXfzbKBod/9+/+XdUd7Ssv7a7fafs//MM/rH2Ps+EcbH4wcyOLN73pTbXN/9t/+291QGKggA9O5d/+23/b/at/9a+qs5ROerxJY+ZmNvRf/+t/reW+8Y1vrP3Y8zAOKvXStnj0bUV1tmKiTf/Df/gPdSk4y2Ti41ub58sP6kxv6UjaE8baZbW2ivzlgZexLz9AyqgDx9JG9HP68sO1hmJQ9+7ZvzSCswHgxhtv7t7ypl8tinK+jN4e6J4uxrjuXivx6IQH/tX+17R2KJVTbqCkbalvwp6G95Bfjg3tqh+040xsQGA4GdF+V+A8ElecNm29bsJWI+Xu21vqVP7MDD/72S+UzvhgvXf+/MXu+9+3TLKvjDzv7u6+6zmlY+zvzpztf/ZBB+OU6ieSRpzSTkGnRDowh5POCsKzTORotsMhiOuIgDFBcVZI2lqn4jwYOGGMnFG5UTpDLCxOMGU45rnF2972tmoMGRIzKXGVLd3QKYF8YqhSdht2OYEHdUPhh4OJ4zZ7YfA5YM/2bKXnLDgZy2iONhMwlj4Ey8CSJ91JG8qH8edc0lYcAgdmtmOwLQ5ZMsxmohwCx22ZlDMxI007SC9fcZTFAeHJPc5NHsChmM1ZfnzXu95VP2PFEdjMYVCk3ThOTk06bUhXrhREdmRkqdrSKfkuCovr7c8QpNMPSSPHeNhCfuTwkaLEd5fjddUJ+YXX2inLDKN/30huvXGP86i70xjoDVDrpJJfn+d4+BjNS9uGLdGQhxKG/7od/CnPkmy6eLKMJI/Vka6deTffVEb/z7qju+5o6aDFWXqXq76EW2WX8hcPbRUCzgQxInFEjEsMK4L2PJBHHFOMMeNmJGr24B79kG/KgeTtniUgho+DYiQY0dx3hJQdCtrzYBh3NdopqLe6OgI5kYFjtihzDJbgOGfGm+OJ7Mx2MiPVHnlWQl4gPofAGUXm0rhWJpLerDSDEE6Is7E8S85mT3gIj/LgMPGmHEfXeObIyEv+ZtPu4Ue4dHSesU9e7ik3Oga5l+PlBL7UJ8dFYVkaE7YZvVFuRWyGwfCaIez1fs/+g/V3me68686iuNfVGcS5s15EFXtth7FR2l0cxU7TWLl21qnbvn3FkB/pfzXVEgen5LepLGMyPDEml+YRDMNXo+0HI8fQZGSrs+I5RkV4lkoYG4ZSZ2Z4kwaEicNwmRW4b9RvRM8YWdpERuSukTgxECjGO+TeIg3HdkC9yCVOOPVzFMYBcRSMN+fBwZBvdjZy1OJbqvPMyLnlLo6bo5GPPLSZshzpHbmSn/M4GHwI9xwrMwNtq00sfXJ44oF04mlffGb7P+AhsyF5c1A2QJgNAweH79Q97YYfJL8QiBfMO98J4AnUNfyTz6KwMz14wiWgSJQtCmU2YOZkecLyjKUZSkvZKei1BEqepSgbACxf+FHAV77ild073vGOJWOiU1+NiHEJ/7nW1q0BEca4MWpGzxwTw2Xkr90RQ+C7eu95z3vq8xPxY6Tkz1DHKaWcqxV4Z8QzY2CoOSCysRHBfU7JUhcHToc4iXe+853197TokRkkOZqJZKmTEwnkG+cijdmKmZClO7J0ru/JS5meweFBftJaqnNfHhyVtsAX52X5UFnCtZ2ZFR7ElZ+j2RdnCgYfliSzvT+bX9RLm7ZtGd1pqQ3fTqTcVqeQcvCeTSft4GqnMTmmBYFCa2SkgftP/Ozq7rzj7mKkl5WYQkT5oVWUhF1toOB4j/Hx/hLV85ztxS++r7v9NrvdDld5XMkqyXjEMYB2MiLPA/Ts6mIoM+uxUcI9zzk8XzC6Jg+jTzJxzhBzQGTDMdnWbGOAkaoyEEQHYkCuBah/CNSNjBn6++67rz5wtzGCATdTsmlAOMegz3AOZiCcl2vx9KPkJy+7+Ax+pM1SqLw4BNee2bmWRhvKm9PgXHzX0OyM89R3tRNnxFnZ6CC9ZToztMzk2vt4tTtTmcI8r8Gn83YTzrA9cz3WztvZ9uTdHluQh3qTrzqS5aIwOaYFwW46z4/qLjXPkGbfxNOJdCqNH4OXTnWtGJ8YcEaXkWa8GWYjTZ2WEVLX1PtKhc4bp5A6cTQexNsq7EsMNjJwLJaXXFsCMQq3A9HPX3BQlng4M45IneXBICKOzJZnYfJXTqsP14pOBHHIQLb6QGYgNh+Y6dgJzEFwMDYrWFkQx5GBd4/h51DyzA/ITZ5mSWYpiWMWJG99Tlg2TpA1+cYpiSOtsvCY9qCzZj+cTMrEi3SeTZnlObcaoty8NpA6KNe5GZYy1DX8QpxE2jrtHkrYTgIv6hzHhMhhUZgc04Lg/aX+u3kzpdvdrytDFDIjsmsJOhmFzmyCsbZ8ZZagk4N66/RXQ921FT4dLflwMLYN23br8zS2Nn/oQx+qXyuwLdiuMd9wc7TzzhZiL1i6bwmPs/Z8xCzLLi4ykifjZvSdsp5JoBd0AmKAORt6RJ+iL2Y8cV6OHIR70sS4k12MqzD3xDOzsown3Gwg+ifPbBWXTh/VznFKruXBmWgjkJ7D4YykVyZe5WHQmYFXysejc/mrl2tlpz9cCcig6XJhckwLATFTytmGBpsE6kaB3nBT1iguxY/DGkPiXi1EuXU4M8OMVC15pFOPo5fXpRtAFoOxeiD1UB/tEyOZa8aJERKeEaY01uYZHfU1CmekOCQP8hk7kA/5MFTOUV4iTdmQ4zMB6hpZhMg55+7HcFoa42SEm4mTd4vIEMXhmeGQsaN02sXsxtKhJTbh8ueU3Nc24jiXh3BHOqFsbWUgIY4wpH1TnnRDhKcrEWSNNwNI+orUeVFYXG+fMAqNnw4XRQ1dK1AXBjtLHjqyDny1gaEykkxbMT46K6ejXo5GwOpniYcxs2yXOAwehxXHxGnFcOUBeJwVWXF20YUxw3YtgyxWo7Z/0K0MFNaCNgPPhMxoyF2bytOyncEDh6XthIO8M7vJTALFAWUw4igffKA4zo1gWIe2nouEctUlOo4iu0VgckwLxJiSCUMUMueJ11634VcTwneMutFslkWuNuBZPVIfu5WM0D0/YNQYO+FmTsJcxwk555g4KGGWNqWVhzRmTGTDkbnO0s56jO3VhOg5qOcYxFmLOAkkL86dvBhSDt1xtbzTfs7JmD665nwMBjiYyN8AKg7HtXDpXTu2jio719xDSQfiovVAvPAJOc+xpZ1CyiMTukkuqcsiMDmmy4xWwXZa2S4HdFidlSH24N/GAM+ZGOXLAcZls1CXgDHjRDgdD7K94c8oMpYckwfeRuOeG/msi+dq7ungRuocGSeFLAFldsQYZKcXRCeuNb1YDW2dW2rvkRMiUw4AtE9m4hzIGMRNHPEZW8YXzAo4l0A54qTdlZXBBz2StuVHPuEFhF/toMtmkJ7J0e9FYXJMC0aUtVX4KHcwvL6akU4ccs1oOOrMOneoRWSw3XJQ5hD44jwz+gXHIeFReuf40mk9KM87NTqv97IYMM5Xvn791nM1jslPOMjDzOntb397fWjvvRbnnr9Z/vOe17/4F/+i7jbj3OQV2Sh3s0gd0gZbyWsnsZH2jn5ERknrONbOMMw/eSB5ILLJufBWXq7lHd1Vdspy7n6L5A3iiRNKGaF5PF9OmNEbfE3PmK5RtAra4ko1ENsFddbhjCYzO/AMxnXbUZ1HRkM5teFD2ipidFrHGRoCjwyIe44ch3djbObgWGw9/s3f/M0az5Zvs6p8106n9h6Tunp35a1vfWsNtxXaezp5LsUxcW7yFdbKBubxth4kj+2S3UYx5DvXbdtvFEnXGnbXbZ4tBe11zulkZk/Sz+MrOis87QPDeG1aR/HihEIpJzTMYy2kjJa2E1Y27Bj1Tp1Vj0VhckyXEZs1MFcTdBQd0Dq15SvLXmiRywItdH6I7DkjiLERnrDV0BoT8TkeHdds0HKP5SKjTct98rXU590XzmYMQ+MS2i7gM8tY+IscJkxYDa3e0ONFYdLOCQsBw+1LCHlPxzbURYLDQYx9zlu0jmA1xzR0GM7j1JBOzAGbRXlWxBFZ4jMz8hUAz5fGMDZ6RtsBPKqTGVyeo1i2vFxo5TdhHJHRmA4sQn4ZoNlt6KVmZHC5KEyOacJCYOeUGQXn1L7Ds2iko8f5pJO7TthGHQKnwiHlwbflSi9bmhla4uOgzJaEm62MAR9Z3gnthAFq63k5kDotwrheKVDX0Fpo47XHNhyG19uNoY5s1yBpvbgmHRORrpeudYzVeTXaKVBsZFYRo5uZSzuDac+D4fVWgAezhezakrdzMwmUmYQwznQtSrx0ZHlk2TIzJuQ9J3E55LE8svliSMO4iT8W3sZP+sR1TuaeoViWWbShadt3iJZv/K5WvzG6JO65092580XO5biChvG2mebxvV5q0ztXN3q1mux2AspRLn3Jl0k8Y2p3LO40rslfsN2IgV1U9/TtMw/E/Yqoh992Yxlh7/jIZ3ZcL3ZSHpTb7h6bBDxjUn8dEDgriu9bc7aV2yjhx9Uin63KyANcPxbnx+W8Y9QuTegC6QYpa41usQI6Mf4Ze0uU6uUaOKos8TE48+oyr35jfMyLq0zGTBoOKIY7TtOnkPBnV6ClxnnLijsBPOCFjPBPD/L9QJtI7G7ktN0jr3mOc0wel4b19b1UTjvf2+e1zXohfdpQ3/DNRX3Fzk67P7PVfbOgg/RE/mz6e9/73ip/eRtIRW9Bm+U7j75x6asYdp8uAutyTL7v5YjxyTFtDpNj6urIy3s93ovgeLIDKrDUR9d2wjHRX53MB1eV6z0hBlDnH3aBlLWRWYUOLR3DL18EjK18lJnly7F859VvrHuOxRVPOKMGdMu5sNYZOOeYtIHnB4tC6yDxYFOI/uAnysnGkmecuPvDeuc6ebS4REa75jim2WfAdgpj7bpRqF/aUn4cAsdhKdhOzdZxbAbrdUzhwWsOPkQsro/dirMI7Pmjgtn5KOwsMtp0ZCx8l+pKx6VdeT62Zu7WD52OcdTIee4QY3ZJB9pGbEQWsN2cUHCk/urOOTE+2bnWGiJxOC5Gyz2j+shnO2SkHB3fi6+MYZyHvN1D2gSFr1yvRnjlCJJG3qi9716bZkhj9/E1DEPKaOMnXuqROOHFzJC8nVtWtEMwjnmRwJ92xpejtmBX8MK2CMdnZpz4Sz1zjtwPDe9V2teH7fdjnHtLvJDrJu12kzJz3AyRD5IHnUHqx3GwGWM7OslRmvWCzMkZyN4rDPRD/mkDSDwUfvAx7xnpdmPdMyYj/mkpb/N4ps6YKLiZQpbpdASjdaM/gxwyACNqDomuWfLb7hkTNTc74vxAh5NnDORYN1ijaywh7Si+erSdO3nk/rw859VvLP68uMIZMpAu8RLOEOEpxj98LgKpe+SDD6N314wy/toZU4tWBkN5DK97zJkxXeFLeZFPzpE2y+DCMWjrvZEy1ztj0j7yzU/V2LRkQ48NPIvArvMXz89qeGmjCXnsyeKYvvrVyuBdHNNr5jumxal5j40a3UViKItFOKbFy2PtEv0O1YUL57sLZy/WT/PYKs4hGeRwPi12cikvHX1o9HRASEdPOY5t518NrSNKOnT+QjECjPDs2r3du2ZfBxgsK82KXcauvuwxHsLjEOKGFwYuRibAX+Vr5gyGsthJKBcZHCgb4qSQOhnArMXXUB7L15fqYpWTZb11L+FtXR7z2majiKwiI22p/cgnZaTuGylzI8+YxDFI9BUTPx3vSyVm24vAaEsUFapCWLyhm3A5oL3n/W0VOs2ePXvraM9DXMsRPuVjacC9dD4YGiT30+mqPs4M63ZjmGfKjdFci0Ae4/mUOMlvduzJ/VLnYgeQn+laQbN4Y+Ut57GS5gFfZCcOw7Na3CD12S4KUnZ4SbumbelCzoeU8GGanpwPqYTXH+Rc/tDqGBk4nT3X76x0DcM4Y9TykbTDsI2Q9C20tcFr5JRyoY2b8NWojddCO6RNlBe08YZpFoFlThpozDNnL/0CtI41YcJGUNS+/lmmyUdPzb6N3ICOpXO0HcB1jLDwOLDNdpLkB/JIPsKGJO5GkfzTZxgTzzWE7dmzr5x7XtDPkDeC8NrSPCgraEe+4S1lb3QZb4yH0BAJJ4fWmCLltyN+aB1ljPBqkM9GoJ617rul0zaXDrfNaM+dXZ6dtPIKrQdjvLX1H9IQ5IWHOOcW5JKZZmQ7j8bKEq4P5b5ji7aeSePaQNL7eDZfDFc4dhLr0k5MLhpRodWoBQ6HNGETuFiUs6Utoqh4Xc6zW41DsqSJskNtCJ0n+sZ55TlEi7X0MR1rSOmMuW7PW1oLY2lCyx2/r0eZA5QUIZ297/CZGa0G6ccwL3w7EUOFYtzHqI3XxmVI0XrijtEwbuIn30vJc6pl2m0aWqA9+nb3MD9lcljL5Jelk888pPyW2vITFrQ8D+Pn2v3tiIva+InbImlyz3lQ9XSgU+KRm/6IPCN2XBRGnzFhyIzJrpannn6q++pXvlJHu9YgX/3q18xiXYrlHLaOoeNZC2NddetmdfMYyuJKfsbEfC5h4IxWZ23tEvOM6fSJM/UZk08S2QFkFGZJLw+8dSrPmPwEuTVtD3t93DQyAsd0xDG5udbBekPUI3HS8RIH5NPGDZL3MC0MO3AgPNSnLcc6Su+xVO7FfJ28N4IXL/Rl7N4z3CLd87UyrEf4GkPKWS3OdmC1MjZS/ljceelXzXe2RTyw6gMGCLuqQ+qqPTtfrs+dWznQqb21Pofq9WpYTnvtfDuxap0G2GhcSPw4IgM9YQZ7Vi/e//731w0NPihsc4N0KH3DdnHPfL1qII6NS4vAmo6JQf3a175avzLrgfXkmNaHoSyuVsdUwciOSnPtEjmm82WktX/vgeqUvHrgK9oeuHrO1Domsyq/1+SFPjr46le/um4lTieJQxI3GHbAIRLexsv5Tjimns9ZHkvLR/21exwRm1nzmT2U56T2lBF+yqsohnZeWbAWb2P12ihizGAFbwUpK+W0cWEj8bcSdxmX1ldcX4DYXaam+w7s6Q4fOlj1zfOkFSjtsHfP/lJe/1UQ5Uubslq5tudjaPlL3DbNfP7XhyFPa+WdsOzos8sPOCg2yQvOXni3+YFjiszTx7yU/a1vfavuyvOl/IW9YLsex/SVr36lO1FGs2ZMr3rVq2exLsVK1Vw/LlWp+Vhuhu3B1tRkPoayuFyOaT3yah3Trm12TPLWefbu2lvfUcqXHzgcyj+cMdmVZ1u50ZzP+lg+oI+MEzk5hnSuLC+4TqeCtsMGwtp4yo0hCtIe4rVYK28QXkfo8ihOyawJ6oi9nJ+Xx2xk3qMcl5zTpfKt5czZVTYWf7vRyiDl5Yi3yCHtE7S8Od9oXHCMzBN/GHc+lp+znDlzqs5GDxzw8+dHSp5n+3ZYgZL/xb3d6VP9J5zoBH1MueFpLSReeHO9Gp/DfDcSF+bFb+O2vKgXipPSfyzRcTZmQ74u4T7oG9IaSHr30DL8S17yktp3F4FRx8SYGOXuKcwxqP/09X+qjN19913rdkxjggyGAm3VRNn1WHfT9Odt/NnKx9JGDAaz8luUTbx2g8a4MV2JtWNsDq0sYCuOab1KOexuMNYKkfEoIuAZajEzA9uil+1yiavmWXDy2Mn6eRXbxQ1wkIepjA85ACfFcYnn6MsEwmLMIquM5oZOZTUM0yVPxzaPlJFzyP1hWbl//vzZavyWDRkDd6Y+Rztz9lTtSxfqzrBddUPEgQOHKun8Ruoc1/lzxWhcWF5iMoOCGraKY1pv/bcLGy1X/J2KOxezZT15HXv6yTJrOl90bFd39LrDMx2Y6W2W/4pTQsee7tvMTJ7x1p5p0xZxmFcToueorZO6cjZe4fCJKvFap2ylzHtM7JdlPCsdi8Dc95h0Xp2NQ7K8grG7CvOvLEZ1xXJPY7SaJfVVMVSqtpmXBThmMIohaZJ6RwQ4pfPnz1VhiiPuWg4qhnR4Z7W4G8GeQT7b4ZhynJemlWN43jDnRcCRf93qXIzmmGPqsb4OSqaPP/r40s+q6whGX75Zp70ZAWUawTHW3pnwTFO4MGg705ixgNXkKI28QZ7KE1/5qMVY/mNxEs8HQjmSvft6R3f69Mk6Ej1+4unu1KkT1dj1Mr3Y7d93sDt0+FB36OCRMmu8rn6Fwo69xAF86Xtgt1gprZ4HY/VM2mDI7zMKxeFYvgO6dOLksRJ2rjt69HDpc6VnNkus9XixzCAKPfXkqaobdqLlSxnrkfXVgFYfoov018qF57n0UBxhGcCBfpgXbP18ywJfsL1UyozahfPFMJXOwaB+81vf7J584snuzrvu7F71yletXO6Za7R6jDmrahBm5y2KK6pOZukdhIY1aVolwcLyzhtT1D5Ho09OoXVQ/oZQx3koKWdnPS6V0CqYyWOjjmlMHkF4zQNdUE9/ut9Y2vDcNtVakP2uOlPt5Y+vqqRz2ngsdFhc5MBQq7+HqTY9WM82YzIjIod0hiqLogPnmiW61gnMQ3RlnhxbeZ2bdVJ5KqtPu1b+yznHYRdW+/wulkFROddOJ04c7558/LHu6WNPzmZ7fT3qsl6JdPasfCwtHSgj1Ju7mwpdd+RorS/n1us0mRkg9BtHxoCHIc9kN2EZ2vXBB3/aPfX0Y3VWe+S6A0XG5UadKYUKilPa1R0sNq7/urwlZAY7X8gYorVLVwtanrNcBxmspc+pb9vXLON5zmRJ73Wve11d7lsEdmNoSAxgNfauS4UYfUsK7tWwen9G5V5LdQmupZJ+rYYsqUrn7vPuO+NyXsp2rPnX+yWu+7N8Uc6hxq084revw3l5Fyqxlv6kCdU4M6phRV9n2VU4X1HnOSSe8vs0rnvaLsjLzLDWjVzUY3ZvDHg6PyNsjVGNNzvv+S1yKHlXuQ94r+05I+W3cluSn3Zq6GzpBOcLnwyxkahOb0nAKG0I5VUdm3UcnSadJG0fGoJRjgMbI6h6IS6nUkioe5zinj2ccE+901km4DBCwqpsz1/szpw7Wx3Q40881j3w4E9KR/5x7cRWGizniXvw4P66LMkR79+/r6Tt0zz11BNlNPqzEv/huvFD2NmShjNjSLVzW+5KWl7aDI+RTa//z2wiB3rkWfnS7PXkqbqs16NoAgdVZlKOZCi+tPTBbClG+1qGeqszpxQ9CtLPhEffFoXdUeaWquGr5xo4lPvLYTH+42GXGo/VsJx3OTJ85cjQuY4DEc4pJc4QfR79vZquxG35ST5oRfyG/+UwhkycGnV2by2apR3hbSMoOSz9QTE99Q+qHCqV8tSziTeGS3gr1CKsLuXZxGN8g7ZOy3GXiYzPnT1bdzy1dI4j5cRKp2cgGGzLA3mPKUoP4iD5Cw8FwoPweEnYnL/qJAs/1fiU8xY1RsmmyWpJb3rd6esH2HHOiVh/NxP23OynP32gbu5wffrMyco3w+ahOyO3Z++e2nYHDu7rDh320dfdVQYcms++GNk//LOHu0cfebQ7dvxYMRQpb1kOLY3dC4bXz2R4dsfoRq9K6/WUWdPsWHx9vS9u9OpaJch5HDl9MVsStiyrri7x2UXrFQ/ni8Lu0vXqcxtHdM6DWx1xUIGe4b4SOa9UruNAVpIGL+nL6BMpY4nqndUhj1La7K/kV3lsLEdBNRglXKh7KbvemxnSmk8Vfm9kgvDYG57ltMIiB3lKUY/lXohzRLlO2mEZYwai8ksGaHY9Jo8l/md/vdx7Occ5Vd6beH0X66nnu8Qv99GFapDVtS+tNEklIN+6rbvkebacny9+ouernJf7KSOQ75kSP3LIYIETMoMIcVRxArapMtw+4mppgAFXJ8Y7y3iuoZWbYzs7GEPaobZF4TXnLX9nyywkfDk/y2GWtFU3ql6XNEU+ZkGOZ8/277u01Lfvxe50MV7HThyv35F8+Bc/737wox929z/wYPf4k0+Xe+e7PfsOdAfLjPDwdUe7A4cO1iXxs2UG5HmTna433nxzmT0drUbxeHFC8vjRT+4v+fyo5PPT7rEnnijlnCty6R32OFbKInJqqZ8JXtu0aw4VASz1M4q+uwwM9h4oM6Byrmf3fbucl0ji7Cq3zu8qM9aLp+vS7NkLZ8qx6O+SmKu2DOjqhL4a0HWosiw6pD9wzsi1mT6n1P5+GchjSNuJqvnp8EuFlM5nhNevY/cQbhnJw8EV8UvclinLDPXt62JwLJesF3tLuv4N7L31wW/KqAayEOeGJ14dVYO2u5RR/tyDOjqfOYY8PK6Gqhielsc9s3r1o6mh8SkGuhyrYWoekqc+teFmjQnC8CxOv3S2fQprN5dRtSUIhl25NnzgSzgeA8b1zBlLRHYW9ctAgP+zJR8kfa1zSR+4L6+TZ04Xo11Gi0WUDCki98yCWodree5MMbRnq6Felm3/7KVfaqo/M1BmCvv29csh4iAG0zfzzCJiQOUBadc4q+jARrBsSEqZ5by4nOqEOCp8BXg5V+ql/ThrM6Djx0/ULevOx9DXoTjTwhuZmP1ZtiPOvbsPlM60r3vyiaeLg3qqO16ckAEEuSIDnX0H9ncXdvdf1Zb+6ZKe7I8cOVjs5a7u6WNPl/x+1j3++GOlvU8uyWXC5kAftdVujqqgzphn+up9smq7HOlC0eddZZi+fz+dZKh7WzQGenm1UfoaWmFDi2zS18gh5xwW/TOA9JzJTlkrBItC6Q+EzxGUo22ps/cs6rWOvGtP6drFePBhs3u18zPSOn4hZslxSRDl3mp/IE0ooaXUkq2yizJ5M37GTzEp9W4ZA64gKYUjcRC+a/kzXmBZEQm/8C1Q3TiUhoTVEZT4hfqjHT41myVk1tGXo3x1749Byl4vWnmgfpaGF3Im85J/kcnFwuPF4pAThorr7I9LPKsvhxrelnlZqls5r2WVWzU+Kue1PVV4Vuk+z15uyCizyrzqR6l/cWB1IDEjjnNvGUAYRNSBRlH+fUXZPUj2jMm21CwLtG3kqNMkrA3PcS7hY0bBhcKn2c+5UlE8k482Jr8ylCjpejmSXS/PmSyQDmxg1tRLXTMTY+gOHjzUHT56pLvxplu6u+5+dnfns5/T3XLb7XWmtKd0evIpXbuuPhiBm33W7lT4LblU535x98UyqzpcZHJX97x77unued5zujvvuqPkeUN16svQjkNaruuEcZB1i34QvTzAiix7/fc8r2iK988Qvcpf9OwaJ3DksDgucjFw8vzT8rsBWwaiw3TbDS1zieENhsE6LwyNcDAvfLPYVQxEPZbKt9u/x+BuKyy81OOcygldGp2XclAM4zwsG/rV420FpYssOUTAUzX2xRhmFtjzWox/Oa4FaZbqt2rderkpb28x2rkOem56iCPfHLObrIYlfHbNDQBFt9PJjjxHct8pcAJZJydLqLszC1U5kGWVXwmrd/v6c6YcKVk71niF6JC61PxKxxTXEt3NN99cHMld3XOe++zu7rvurltpbXCw0UP8lZgNZmYytVQn76NHjhZHfVv33JKHHU92K1bHXRz5PN2dMGE7QBfHqNocej8713cNLIWBftAi6bYTa1u2qwiW6Hph9kbbcUxgxCr0Su/2vUGcGcuiHH19esPfOqp5WJIF52sGsIryyHevfDml2bX4GYy0MKtYL8z8zA5sfLAs4L0SnyayZLZT4NR1nnSgXhf6zrbkaGZ1qLPGzIDJYCbvPeX+3hKJDIQDJ5elIHmZ9XG0yDOjw0dK5y1yrg7sPAd2afsYmVvKM/q0TGq3q63kZpk6/3VHSz77fRVjX2mHDQh6whpoh1YT1gN9xkDL8yW/Ju0FXGGIjvfPYvvHHduNDTum7WdhHK1BXKt75l2p3ojMqPxllIyAAKvRKufUtM5MiqFhbDx/yTT1SkDLh5H93lIFxhIykud05iGjbWmkXzVukc+eQsUVVYUQs17P5Ja2yLHK65zneY7nu3PFuHq+l2d2jp5J1S8e1Od7nn+dWXomw0FJPw9LbTgrfyPoO8xyO3Kz9flloaoPNbTXY+cXyoklHkiZ7UyKGIUlDtQNFKU+nIujzqm+4qi7uqIh5GOmaKdenVWVDm5buOeH4ZlMe+00d14uc8KERSF6iDgf+ll3mxZ9dy99i/7S583007VQ+qrnGLOrTaJfvulH5DGIfbdaf8ZtTCPNfty+Epb2ZtkvCQdyrvxhOnnFwAbedbRDjdCzWaHyPoi3ZJhnRWVkPUSS1a8kbBHLJnElsJAah1fFDYski9RjSS71f3+dsLgpjrl1Eok7yLY6pTpTKgXKI0rb5tnztKwD7YyBApsR2PiQ7+RJp+zkk3ptBcP07XXkB2uNyKQSf7RvcECl/lUOs7r3y6+o79CpD9TzJh/PUdsZbPIIPJuqeWy1Y06YsAXQWysdvlvp6w+eNQkDuhvaCWyHLa1OqY5Ii+PYKrCTCrf59aN5pGP3YSzHriKoahBGOnE6PEN5iQAZl8YgMpz79+5bcmzzBC7c0lDbQMNjDPN2gKEzm7Mc5lhnfLOy2ypXgzgLD6rzLUGozmCqwVyOR5aZ/cjMzLPKd0ZQ61OIU1oeyy+jf2ZjCczzOstgRReKHPMbNxm0cEi+j+cHx7xgyznVgcGMVkN4mEvNH5jtBb1ulDqXMiqpe1uBGThUJL4XksEhss4RxNtX6mftPS9iZv0d6C05BOSa9OpqdolvENfsydbwKrdCEyYsErWPzAjoZmwvZ+S7lcgqQPrcTsNHj5eXwjZpUKvRYzDHevwcKGlIROGoS1uqCqpBYVwsl5QifN5vV7mGCKrlva/PzNAW4mzUk8EqprLGqfnZbj0zyCtGtLN0kU1IWmHJK+ErUHcSLvOyXkQGtf6Vz+X8Q/VzQecu1Lo7r2Ezci5N6uq+ul3kdIr8pOvvL89GS4yldEFNm/PZMdVxlAaq8u7qdweqc93tWKZVdSdhKbfuJqQR5dxrBgyy7aZPPPFE3eFj+WsnUB3MbJCUDsQZhQpztQNy1u7Ssn6pr29bMiMvh8huSc4l0HkQudd7zTkNc16vqyx6XZ3tbV26l/N52M4BzgTSnrAexEnpQ56fPve5z61fIPe8aRFOCZZaaysFeo5QP5VjnVyPLijmsf5tBFkow0p1NoV0XEKqS0f12QWhKS+x+7h7m2Wj9ULHX87bM5LlX0+dh3aKOfZwe7sg7yEtvwTaz3x6BSKfpOllBr2cxO+fAzmv8izKZnSeWgprR/vrgVlQyor8PGfq+WH0hc1mJzMYefkQpG/lec5k84O4yjbz2E7UehaC8ITqYKTIw0CnDxN3pdyA7M4VXejfa+vTQuK0cWF43aMMHoquuJcPijrv23Is/kpMTmlxSHu0+vpMRXTdkVyyI8/LtVYGFoXaY9bRT1aFBq0PwYtzSsU2CwxVKjxZJgqqQWZYzM6qYW4NRt/Z62yBMZh16hiGMTDQlpvcx7eX77yEOlTOPu/ZxQhyz3FeWdsF9VV/L4audE49z/nGG/Rx+wFD/329fpszp5Q4xeZW1J1qA95zD9xr79d8yiwjKGa+to1j+IlzEiY+Q1+/WVYcEieV3TwcU/LG41ZROC0zzlJHM6CG5+qU8Fio59G1Y9qukUuJUzdxzOTWQpwhLYWXUVTJppz3de5/j6mk9y0294bxK5+9E034hJ1F2qClFnSjzroH4ZtF+kNoJzEsayPlzYtP/2160HfXWnLfTpSeoWf2Hai2Rb4hVcm9vmOlg604r3HKf6PjQhsRxFrACv+io5chbskbGcXaAcUB9td42FP4312NQl+PIaryLfHbk8/f7y3kXF7nS77nztp1sj7hLxsdMppRvZ6FbQuW+UWVz1nd7eZynnuqaAkrn7HpFa2fWcaJcVz9JpUSpyQjLrH3lHbe7X4to5B2n+Vb855Vp61WOwAwS45ih+II+nL3dNfdcEN3x913dfc8/97u3hc8v7vplpvri6ucVH5VM+va2wFzQnpRdaPWoadap9JGfTs7L5USp9QlThv/vUPvB0KR3ZIxI8dyrA6lntci672l1xRmgUtpCk14ZiJ94krFarxZdvctR78MsNAvP8yOS2vdPsPhnRlwszVGOt2Bff1vlOh8PjeDYuzS+Uo3rMfNIOYQlOdrzAcPlalkmU56SJwyUS1zxl/Kr0Z3AGFmRz2fvUGBPv/9NV+/kaMc5QlDprFLdSqH5XoLX65v4J5ytgN9XVaSOptW4xefmfGF4nhMucWt9Sp1Qv0DdjLo45XoFX19ltuxRZVbkdHS87QSJkZ91jWbUnEmVV4zvYAoeuuwGHo83HDDjd1hL9gWGZqdeqA6zyFJx7nlvZ/MspARXMKM5DKzaVukbSNOR3vH+SAOx+eeTp44WZyjnzzoHRBZ2IQgz37m1DtX7Y6qjMsx75bBzA9V9PLt6yQ+2Zhh9vXpBz7u10HATI4TrizQTX8t6EO7AhHQwX7LP13pKXprpSA6G12MPkd/A3HafJy7j1xDz8NyOS2lnBaupWkp8Zwn76TLvVz3ffaG+ttpbM+ioAvNThmdvsPqwBEixGmVsWDtiGG67/glbJZmmG6rwNv+3aVj7ymGb+/+fqeXHVAzWsFjiYu3sfKF1d1hhQJ5+/PgW97owL7i+Pb4bSCj556G2dW8quEZKaeE16Wp8redkG/Nu9S57gIrxs55fdYzu1epFMvG49sOORSn49w9cVpSlzF5BsttXJzUxVJGafqLZmCUeWZUS2jVgehJC7pSumnpAOe643Xzw+Pd4489Vjsl5PmWzjHspJxWdG1Z59Sz51NYT31nq52uGpN+OaZvq14n6jkdmOlo6tXmC5lh9k7Ibjtp+nt9fupa+Ca32TnEv/TtILy/YXdenslVXiMz1+W8XTouKS/5m7AYpP2hPe/1aVn/QJt5MZq+tgYf+meTy86oTee86ugs3Lm4dL9FwhGImziOqOURhtdByk8eycd1nFL4T1xIfhyTF2t91cT5orBkqWPcjI6xNDQyIjIAdbRQBNZSjV/SVSOQnjqDdGO0ESR+Omv+PEtAxUQvnccgBKlXUK8dV6F5kHWyb/Ots4mQ6xo6DnEY96W4s+MQyT9lBLif97dRpD5cKTI7qobbdblRZ0vlvC7zFSpdph4tiVlO7du/KLtl0KIXlNkmFCRd5b+EcQCe4f30pz/tvvzlr3Tf/OY3uycef6IOZIzCdAidUOcIXJsVSc9J6BSOgXTVSReHanBREld+8lIvRBfoZaj8r1+3wB/I12z58MEyqykORJmWL+DQIb/s6ee4986MEIMwa7cZFfdSqZfRsixtd61tm7AZL/0yYglssEIfZjTh8kN750PK2kzfqB93LXrkl4UtbWULNT10X7y0r0EXEo4yS6qz6KK77nEMdqpG1+l1HEXV7Rm5l3Doeenzb8tAAT76/jfTvRlcu9cO/Fq4n3zknb7nfFHYlj6gInW2xBCVvwnXFobKzeDXzxcx9vS6jPzNopwnbkvBTTff3D3/+ffWb8Jdd93Rovz98phOoIPotDppOqpP/uQ3jxx1Yi/7+Xl2P53hSxIZAQbDjtaWPwYfmPVpoJ8++FD3uc99vvvoRz/afepTn6q/sYSffnbcj2LHOvHaKIZkxfPNCVcaoiNjy6raHJkhWVrzoim9A9unM7Cir4jDYcgZ/dbhpAz6atCVr9jH8EvXQp9wz07WfCmldTz00WBpSO0MqIW89LV2cMfhjSF5O6rD/fff3/3whz9cGrAtArWWRWz1Yi3UJR0Ca4iRqk6p3FtvPjsJPLR/WwV9munUKGopM8WL8l1LaGduIUtT+3aXkdxsdqTedZZgyaqNW2XS39eBb7nZl7jv7u648876nAkovw7i6CW+97///d2HPvSh+pl9HVZnyGf3fWePU/r617/efetb36rx0xnTkTm7mu/MiQxn0EOcOH2qe+jhh2v+P/zhD2qeDJBy+1lcP5tr856LoQOq1xOuNKSvhoagu0HimIUfP3G86uLnPv+57mtf/1odLHFSBjE/+MEP6qsQ+R7kd77znTp44ljoNudFhxD9+vKXv1xJGrqrDHESl15zCp///OervssTMnsaznZapwVj9QJ9Bd/5ikMbT9kwDONAOVI8STNG242lmhTxL/0F7fo3WOpon/PUpZH6QL2YpTmC2CzkNkYtxu6jFm292r+NQvVW0CbzWQ+S99jf5ceF6pTqVzL2ckZeUC08l+kSuewt/5ap6Efh2c44I8JsLPGh1OgLpU6n0sk5Jc7pS1/6Uu1EZkh2BOnonIZ3oBgCH4IV34hUR9eBkqdlw/oy7ExilQfnJY4OraPVOCU+Q/LQgw+WPH9SnNGT3fU3HO3uvPO2otceUp8qcU+W45l6bSemP+jPyp/Z4shIe/1YNiYTLj/a9uwHVcXmFVtHT48fO979oAxezKo/8+nP1N1qlqc5II6JLnEm9POf/umf6n0DnMySOCU6xyl85jOfqSROnJE44orDCdD1T37yk91Xv/rVOlOLjusryQ9Be89RfinXPUT3OSV9R95xbuIHriGzKf3VV1oMLFPWIjC3V2CwrrGWyjnHVOuRYcXouBllTLi2wQlVh1QHKj3t21s6XV3LK6OuAdEjTsSv137605/uvvq1r3WPP/Z41RmKr/PoCH7uwVeMdSJLB9/4xjdqx9eR67OgQ4fql45f/OIXd8973vPqUoq0nJeOrKOdPHmilsXxACMT3eSQ7r//x91PH/hpNSKWI+V75OjRuvPITO4lJe+Xv/zl9ecsGJXHHn+sdlzx/eS5kbNeIN/8iCLUPlDiVZqdz8ew2827HoZP2CmYWWs3z9HPlIFIvS7k2tFqgAHQd779ne7BBx6sjsJsiGMxm2C8fR2BDjPi9Dk/YQL0lP7Jg3MwyHJNp9lVOg9ZbotjiG4Lk845fuito/w4Q/npJ/JhrzPLqX2hpEkYfr/whS90Xyt9EP/4AjzE4SVMGi/W3lX6gj6njywKe/4/f/RHf6QLDcd8mPIdOttpH/3FI/UryjdeXzrv7XfUcejYn24kr5bmYRhvSPPGoG0Z64mzCFoPKEXWaymr78ZlBFWpxLlc1CJhZht1xsHXlFlS6aKVLs4S9C2+/Ac1furTUI1d+t2jjzzaPfVEmZVcd11327Oe1R09fKR2pHQK4Kg4I8TR3HLLLfWTKBwS6Kj5iXZpnBtRysco8P4f39/9ohwPFONweNbpPcDmYO7/8Y+7H37/B90TxSmeLnpNx58qDufJ0i5PyPfhh4uD3Vvr83AZVX6mOFE7CG++6abuYx/9SPd0iXvk8KFiJCynlMFaMWQhsjGz8uuzNoNw1ocOMR7LMhXLX/1s1YVd3bGnj3cH9x/obr75lpLngWIMGSMxoZdHj4RNGGKeDQDt++STj3cn/ZrwhXPd/gMMviXfoTw5oF3d6VOny+meYoBvLobfD1mWPIre2uygfR997NHuc5/7XHUAfnL8tttur/rqBzAZ71tvvbX2b8vC+vpLXvKS6lA4A/pqGdCSHF21FO0e/bacx4ngl1PTZzgTTsVGIb/7ZRD27W9/uzqN2A3l6Cf6gBkbJydPTlN+7ilHudLJz8DQTM2gix3COyeXPPEA6ZNxogZmeGh/Xr3v2ysxFrYZtNo/YcKmEaM7/AOjznRCDtlRZwAdhjIjnfy+++6r93UInUpH8NFXndMsSsfX8dLJdXpr8K51TmkspZwoHTNL0ceO9c8Gvv2d71Sjkk5vCcYzK/koL+d5riUveSrPcwXxT5QZmVUEI+p+CbvvQunQdSmonHuBtx6XrnuacGWCjoLn5Zaa0150yFE7O5o1G2TSEbrHeDPwfpmZw+FILONl9mKwZHZCd+kS3WTk6X8GVpYGpeNMpAE6phyOSjx6+bGPfawuacuTM+OoosOeReHHLEi4+8oUzhkpF8/CpDfTkm/q2dex74etc8GDPPGpTovC5JgmrIpWWSs1Dmc9oPCWvxy9C/Gyl72sfmHc6GsIHcWSCOKkdFLLB86ti7/vfe+rHVinlZ4x4LDkrQPH4Ti3PHeozEbgkUcf6b733e/V2ZQlwFe+8pX1hUGGwvMrnY5j0vk5Qs5TmcrmUI1+PV9Qf784a2Raf8ivXDNolir7Y1/PFeSjTNVJhSbndDWi7sqzelRm/Q88+EDVQ89BzerpA31hxDklRBfpk+VomxzoZPSJgadn9J0D+cd//MfqODirzF6kp3eOcQ7ypavIebtRBz/6CPriF79Y43BAHJGZE3gfSfl2xeoD+iK+W51Udjt7Ur8sPxpELgo77pjSQTcKjI1Ri7H7aKeROm2mXlc7xuS9GtlwYCs5pdYJMwvR6cgvDgjpEK6trztmZmWEaaQovc715je/ufvDP/zD6uhsftB5pHdu1FkdR3Ge9eFvuffIz37ePVE6dolUl1w4JUbhhz/6fl3qsSx39Oih7uw5SzmeKRgZP9XddNMNhaddpXN/v5ZrqYaBwbdPQnkW4dt7RtNmT567VSoVl39/3i+J1Jd7C+nwE6482MRldlR/YsZyWW23/mE/3a2zpGNPdw89/FAdWHkWyvjTZ0c6y9kYKN1xxx1VdzkbjoIOv/71r+9+7dd+rS7vWY6mq5bRPM/0LIpeGmzRY3rLeRlkKVs85YlrYIUXrzQoywqDFQU6xoHoI1YQ5E9XxfHsi+7SPf3DMiT+DAAh/Q/EaXVU2dK/5jWvqXktCmzHXPS7UrIcYy9/z/xm0HfmfjMFITAmRgMRiPtplJznnrgaw7V7GUVAG889BMJSFuQeasNheO1cGeHR/cRpqc1zSBN6RId0MA5GR82D3yA6Jo7OpVORd5Y7hGX0KI4wyyfOdXIjRqNT5+IG4hkhykueRn3i6PB4MaJ84skn6vLM8eMnKk9enBT3Zw//rC7b2SIsnvbeW7+iUfIro2dGDN+9AevrWJf3ZvX1IL2/vpQmXJlYrW28EP7Qgw91J4qe3HvPvd0vv+6Xu5e+9KV1wGT2Qq8ZfTpJRxh0+kZv6VVmIRyOZWIDHTMoNoaj8HtlBmPS03N9xDMk9+gXfWVX5O1+dum5Jx3nxDHK35Ke+PoFnjg8cfQNuhw+EYcqD4jdcpQ3VL0u9/GfeMFO2rm5jqkyVEZ4/TtKZfQ5M8abgQogDURwBENIaQSGAFXDUMLEjeCcxzHFMDkKA0ZHGDjGYSQ9StnKlE6YdMLBOQqSJ8IvBZM+8YRvVhbPNESPgNzIP8pOhsKcC3OuM2lfHUFHEw6clFGfe4xAOp52AefSi6ezIWnlo3ML15bW4y1tSJ8vpHNGdOPwob48eXJWvqHnXmY64uM1elMdzSyPIL+95NkS5zVGE648pE21c2uAtTEdMqDhDI4cPdI957nP6d74K2/sfud3fqc6Hs7Js0+DIzpG98wuHOk43TJ7EgdxDvfcc091TpyIGT6C2BX5Wma2rIwnS3IGVPSfk6HTGZBJY0Zj1uUeft2z/MfW4gPYWNeO+HQUl7OLXssrds61+GaE+Hc+D3hE24U9f1TgRJZLVNqoFlEKOlWY1yCEy/Pededd7oxiLbYIVgWRZRiNocHtEtEQhGSkwcAAwTBkBOcegxFD1gpTHHlDBOte7msEy0cELK6RisYSD+QtnYZylE4DK8PDRYpkWizMPYgCz2uMYTje1ZFiju3Ku7KBvzFa28iq257dnETfZjqs5QidUv21B0Su2gs8P7JMYZmDgyJ77WZ93C49MjTKlA9ZWipxtHtPOnqkPG0sLRKfQZA3J/esZ93avfxlL69bYZ//gufXPF/+ipd3z7772ZVPcV/04hd1L3vpy7q77r6jfrXiFl9FLx3En5mTL7wzXp4xnTl3phgDL/1678nnlrzNrz4hUiuOrP6wImd6rDrMflde0a1drZMj36A9n9Cil+o46NLyrrwz3f4DlonHd+XtKrI/WXdq7upuuP6m7uCB/hmQAYZ3N7WvGfNNN97UveS+l3S333Z70cdeh+kPXbE0xn5YyhPmGg/yobN5dqrNLY/RUWH0jp671l/orXRsjnhsJd23/MYBuRZH2RwUndcvOCZ9Rbh+wV7jS9n6hrLYTzM9+VrSFjd9LxAW+2jmZiBoiRCf7XJea7e224YtOaZRlMK26pgwTMgqKR87ROxC4ZQIVcX/4i/+ohpsDZb3WJKWkFAMFoFFmPJsBavRQbh4CZePh5Ack7zzjEGe4S1lgTgcCYfmQSLHpKE1bEYf4kqDxjAMv7od0zysZhZ6kG//MyX9KNAAQjvrQGSpo6QNIwdy5jx0NB3SfR2R3NI5pJcPHdKeiH66pwOnLeUrrTyFp5NzUjfffFN32+231XAG54Ybb+hue9ZtNU/xOa9bb7m1xr+ptD8dOHDQhopep0P5qO+ZM6fLQMu7IWZ8xTEdKvpolEdO9Sjl5Ji2E71Ux6Ftlh1TmWlswjEpwKqR9jx85HDVH06Jjlx33fVVN+gq3WB/OBNx6A595Gw4KnHEFUbfhOU+nRZfWnqL9A3x3XNE8mU3nNNf6aWTnyNdwjPbakWADnumxTkpx33pDAzlK948+5OwrFKBOigzSNqx9FvFjjsm6I3ThTpT+vCHP1x3VxE8Y2KZ7D3veU/1ygT/2te+thovU1SGLLMhx6ooBa45GcTga0iGigAz5ZYv4nQokXddOEFGygjC0T1xxHeufsoRzzTYua2e+MAbo0f52gaZ1yjD8Ge0YyqjzXNnz9dlC+vroIPoiPSCLpCBc0f3MppMm+tUOqC2zADEPe2uo5Kl/HJfeyo7nVxe2k8c1+IcKYYmDs61cg8d7N99EuYDro6+EH7o8MGqMyXTUrL50jI8OIdz58/WGdPkmBaHth2G2Kxjuv66G4se9I7JJ6nK3ZqOrnAAlnzpwv79B6qeCqdTqHdY19X79InOSeOcDjqyM9JwDK7FpwfKo//4lp6zE4fOipdr5cRZCU8c6aR3zYa5b/WAQ0n+wvQj5YuLxhA+EOhHSQdJNy/9VtH3+gVABS2VcSqmhR/5yEfqdksOSENxKhwBD23r49///d93f/qnf1pnU3/7t39bX2wTl2H/+Mc/3v3P//k/uz/+4z/u/tf/+l81H0bNPbtV/uqv/qp797vf3f3v//2/u89+9rMzBVte4mOENLyyLNWZwdnSyXlwSGZX8uSMNbi4eYYR7FSDXF2gPqvT7t17u317+49akq0BiAGF9eo4JUoPaZ+cu69N6I52AOfu0aXoi3ZxhOTlGJ2TTwvx5Wubt3v1F4xLer+bVJfkzub5Zf9lh/q8aKY/dmzZuQWWeOhS/dJDIaAXoQlXDy5eMDDqjTF4FkgX6vlMf2p77+sHLF6ypkPaWRr6Q3frQKbontUW4a0uRLfZFToYPdQXhEWH6bV78qFzwAbJWzw6LU9OgrNzT1nyz6CLQzJb4jhTLnBa6SPzoL7pVyB/aRap08scbzMIKhSBqazRgamkynpo6PMYZizCVd7LYb6XxjmZYbjHKYlntG1pzTmHIk9vVHNUHJAG1pCcn2dKwr2UlpfQGEUjCcoQHgEfnnPJN2SmxBEqkyGVL/7SqEk7YX3QvmaKlhWsbxtJkiWdSIfUodKJcozMW3m75qh0VHoU/XKMA0lYOlN0EYRL57kX2NTg96rct5mBAZIuGxU4HV+EUK588QmeMa2G6rBKPi1NuNxYv8mjC/23QM1ksvRvc9XMURWdAHoRnRBHO3MAdBG1Ouwe3XXtXN7RYaC70ZU4JWj1GrkGzoMjy7V8zaKsyJipKVM68XIeCn9DyCP9yZIg22kjhsE54K097gTW30qbAEEEKumalyc0xokj8R6AHScaSxyOwPZLgvG+gOU+IwQOilPhiDgsQv+VX/mVmh+hcSyW8YBghbsmVEejdcfMfNLI8nE0i5OHmRMHhlfKJp1nTIynRtQY8pcmCjRGE1YiHcbsGOmM0HaMyI1sA+laeTp3X/p0HmExEtotebqHhIXETR4576/7AUeuIduH631tPrvnD2qeZTY14cqE9hnH+s1e/3Hi5XyW9agf+AAdbZ1LrqHVuYBdEQfJo9VlyL2cJxySBuJckn/O5Zclv9yLvof/oM0bxMlRWeJmZaKtS+LtFFZtofpNzhk5ryR8Dq0FFdMonMEb3/jGumZqNmJGA4TEQ3Mgdqm8/e1vr28oG2kTtmksB2X6+oY3vKF717veVR2ccM+QzHAI0X3TWPmnETRaGhKc40U5HKCyzcw4Rec2YXj4Lj+OkDNrDd4iGudaAxmarRocOGqbdEqybGW8FWgfeSPnLaIP89DqC9T3lApvlnqi6f0tOqDjllPfvkMTrhCUWY0vbnTnivHSWH1bZgbbo2/LnrR7/5pJ0J6nr69FdG2MNhJ3vSQP/cWRHROGZ+TcYJ6Ni8NLmvaIhvUDedB/9w3wrW54TuV8UVhYb0pDM/TObXJAlnYIgLGyLstLE5AZjCU2sxezFoImZMLhvd13jyMDo3Azr6985SvV0cknDQYZaTiC89y3HstZmnnJg2PjrPApXkY/EzaPPFv0DpGj9hzDsLNsBMPOlfYTluv1IPH6l4N7yvINJ+WZlCNaWu6bXbcv2E64/Ig+aCftM46+jaEfgFz5SL2qrhXihHKtD5kxWep2za6ymWyfe7GxaDXoB5bgbUc3SGcXF4UddUxjFVdZ4XZ4+MQG52SXHGFxOmZAwjkqGxnMhCylSWdHCUemEWxOsJuPMzGjMruyVCRdlvTa8jkh+Wd9Vx4aC3lr2nMv6fFlFqUcIxJpOL00Jj5WG9W7P6QJ/QNUsg/FYWgHciansQ4zvF4Pkq922mjaIM+PUn77YmyW72LM5iHOa0gTdgKZGS33zdWXWS+NH3NY29zy0JoYpl8s8MnR6DvsGOhD0Xvh+kEG5Ilf69fQEG24XcsGknbUcnBj8XcCO+qYWqgQA8/7MvycAGfwy7/8y93b3va2OmvhINw3WyFQGxgIxFIdw2aHiQ8PikfoZlSMnOU+jkke3g8wWpDG8ylluVaWl9BMSdN4DCLijCz9WR58y1veUsswg9Kg0shXHM4N0uDycN7ShHFoJ+2nfbRLRl86VBxTZks7hbbDzcPwfq7jUOKM+pnUYjrphK1D+6W9Vuuz4iwPHi6f01kL+B4Oll3rQ2wTOCJ2K3FbghyHSF+00mGVw7N6TmpR2FUqdYk1FYQwbRnNcxfPWTgNjmQ9aLNN5RmhbI30/Ec4L2xTA8NPuITwd3/3d7VcwmTAbJAwg/k3/+bf1NkVYbuPJ7MoTkR+wu2osxuPQ/v1X//1yq97lo7wxNmYBTlXXsA4ZvunhhRPHEuPwLC2jgmGjTq8DoRbcjS78yXhV73qVXXjBmfr3rx01wLivEGbUW4zXMsM2kv7kzVZjC2Zrkc2yX8M0o/d7/O91PAkvq3kNkTkOnkM+RGeTnzi5JPd97//ve7kqePd/gN7iyM+WkJno+r6rKPgojfqd3cmZA8++HBdKnnhC1/cHT50pNuzu9evHq2T3lmHfTVjuQVXtmVpsfpDjg88+JPu0cd+Xvr3ye7Gm67v9u6zsUCMNv7uIvuD3S9+8XhdyrvneWXgfN0N9fUB99aePC2+fejdUBeD6GqQeGO62x4D8ZD+yY6yW2y01S0D/EVgoRJleDgaziTG32yGUzKD4jDcF0ZYefnVwzebEezmc19cMx/OSpj8xGcg3DcyNzsTruMrRxrn7scIhgfE8YgvXZaaGE9phDmXP+IwMzppKQ3a0jMdZEA2BgY2uthVaaZrJEaG5IpapzQmvzZsPfdCbadrw3tQf+3GAfW0HGbnk2UScftu0qZPHjmmHC8TO6/vPpXjGE3YPvStNaQLZRxQPP/FQqUdhpu4ct7S7oulD18otHS9nNeViFb/WpoXthrG4kef2UR2NqtciwLZLxQxRq1BZ5QcOQOzG0tpiDMyQ3rd617XveIVr6hOwghcXHkQVGYxZjzucSIEaWnOTErehJ1y2uuUOY/cjwNKg20Um013rSD11z6e/5k1eQaY2Sk5p/1hu+Ulv9BGMIw/ln6Y7+R0rkT0jqUOXNepA9PGlR7R79YOLgo7VlIq1XZcULm2girMuYjHSJk9/dZv/Vb3+7//+90f/MEfVPq93/u97tWvfnWdWloGzIM+jshSW3b6ydcykSmn7eieRXFg7o0JtuVxHgV1FLwBmtAj8iB7bWHGaoDBGbX3W5mt1g4TJrQY059AWOtk5j8XbMOLfZr0banfWdnwfGnRz5gW5wIHoDQcCwLOxXKPZ1AEYgrpQbltipbWxDfqbsGhZRbk3H0OiOGznNemaxW3PZ+w8yBvTsn3BrP8ykFloNEONp5RyHOnUVyZS0hXEzb+8vNlM4dXLPTNvFuaL+YsApfVMYGRdLwz4ljccx6H0y6rZdkn8XPe5iWe51TSJRwm53R5YfBh1IWyqaRty9C1j+J0VnVKE9aDYX82yE2YmVJ+ByyoL9jOWaaTju45nj51rjvv0UAZOLXo9bPfEHOtI3I0gLSKZVBpoL8oLNwxqXCUoHUkcULI/cymkDh5FhFH1SvJsoJIk/ycxymBNAlHExYLsjc7MvKyyweZHWt3MynHtOlGIP520BBjcUKLxeS81oOxPl1aq9oDLzz3/b603ewLHb7i3lOJM6OaZnbMT+a36O/FXC7Hv9w0xFic0BBjcRCQmXOOycqVHdnOF4WFO6YJzyxE2fMskINqR7ZXD3SVMZpwJYCO9dv7l3dWZnDqZWnL+V4BmKd37plN7dufF8H94N6B4oLkKT8GW1q6G6d17euAPmtAaePSIpfbp541YUfBEHBEXgXwYq1dlp4bWmq95jB9L2+hyOge6NnZc2e6EyeOdY8+9ovuF4/8rL574z056B8BrLYM17edXeaepXjo/+hjj9SvHjz55BMl7FR1XufPr3xefS2id/L9TNOyu2+QrvXT6tuNy96TWkVxPkYTrl6kExu9GolaDuCkGIoJE7YD1Sl5ef/Y8e5nP/9Z3UHme5l+n+3pY/1PNRzYf6jo3N6lZbshzIpsluCUzBAefujh7sc/+nH9dqZPoh07fmxpxvBMsUvkqp55RLJITEO8CTuKus5fyO6e/L6WIwOwHSNPeWyExtIE7XV7f3Xy7FKnTVdynJ3PnUExgiVNvT8vTrntr5ZhCWqMcn9tCsbuXc1kae38hbNLs5yHHnyo++53vtt9+1vf6r73ve/VMHI+dNhHTf068b4y8/ETEXu6Cxd78jUOP2ipHT37pKM//NEPu+9859v1hfAHH3qw5mPm7/eZGOkxXrZClwPzynedZ/v5uEF+rWFRmN8rJkzYJlBwo00OyRfhLQ1YYuk7er/xwbk4nkHlORQkrEU6TuKtl9IBHeWbnYGB5xDBMN0YDWE07kcHz5314235AvnsQXvX0949++unh86evViO++qPEkK+wdfCCL7+gu6sLEfXlpTG0PIWSh1aDOvWP39Zf12H99abbgzD+OEDT2M0vF+fDRU520TDcFoqfvkrXt698IUvqq+ctDh9qsjufHEqF4pzOl907lxxRuc5Ks5pd51VHTp4pJ7v27uvu/32O+qL/b7decvNt9QBlqU8myN8YR7oEF0KX6vRsK5XAjh0chwibQHPiBmTCrbUhs1DG3+tuENsNt0Qw3zWogk90gntjPRcydc6GBDLehR+rANwOOkswoYYynq9BCkrDrE1EPPKGkMbnjpcuGiHqd+Xys5R9ZlRrVsJ6/YVR+V5x95u3/4D3d59e4uDWt5B2sLDeL8HBeHTdV12KtchyDFIndUpcg5STzzH6UcuSTekFmPXw7D1ImlDeMsxfAbt9fC+reFmRb724sX6e59/b3fvPfdWh5KX7E+eOlMMsW3gu7u9uw8WOlyd1NnTu7qnnjxR49BPW6PtQuPknvu859Y85a0MstcGBiDhky45tnynPi21aK+H9xaJlN3qUasrnjF5zuZzYmaTi8KOfcR1vWiLH2GlYqcabpEK8Uz9iGt0SWe15k/JfbHdp6MY7zggnRuBHUBGogwKSM9wklMMQZB760EMMbkjaZUjT47TubAh5rWPdPJEfV6nSv0e7E6ePl7y39PdcKPttXgr5L2lMhLfVZzSxTJCN6OyPHTk8JHurrvuLLKgC8v1KrkXB9YbuTprKrOnumusxDNav3Bevr1hHvLXXkvvmpzx6FzdM8oXJk7qPfbsbz3ylQck7pgcWwx5bNGWN5ZPeIYLF5brxXGQ2YWLvU4J72fn/XtzZgdkrK2vO9rPpiwx0zdG17PPG268oc60xCHrPX5y/0K/dKcM4ZEbhNfIOfXK/WG8YFjny4HwpB9qdzy1fKqLX3jwEW32/01velNd1lsEJse0IDxTHVMLjsnuHiNRa9ccT+uYdAzXHl4boTnnSLJkR07itCPU9YJupdMxLimLgZaftohjQplJwLxy5AHh5/z5s91jjz9WQuxCPNjddPN1JXE6en80WrcSd+7chWo0pc2S0wrHxIl5IbSUff5c/zwJzLByPbB1S3Eg5/hC6inMOUPkSB5kYPaa8xbiBJFBK4vhecocHudheD/tE56HCI/qkkELmR881L/4yXnXPIvMpceTZVXbxU+fPlm/XnDq5JkqwxtuuKmmOXH8RN3Y0Dur6/oPPR89UpdYDQDOnrHk239RRplkxYlFV1o+xRmTUzAMW0s+Ow380Hu7ZH0UmwyAnN1DdNTyO/v/4he/uH7ybRG47I4JLlcDDRVlJ/FMd0xGpt/85jer06lLJIV8NqqFzu7lW18f9wCaEWAMyCdGC9rz9UIaepZt6hwPnuQdQ8jg5bzFWPu0cRhLcfyct9H3gQP7qmM6dJjxHPLap9u9a2/36KOP1PPDZdbECK789dTZct2qn9W51HivF3SPDPBupkA+6q8eY/Vtoe6baYP1IvZniCrjEq7d8IwPs9Qlx1plWJxFmTllqc0mEddmmHbomTVxINdf3z/IP3niZJ/fkcM1jTzNkpwDp3bm9LkazqEDHjJYIsfwmwHKerCT8lsv8GALeD563Tqd6IBnwXyA2T0HtqgNEJNjWhCe6Ut51qrpEcfkE/qIY9KZEy9x7IQyKvXbL5b8yEknQuIxCskXrQfSMBoMmvMs7bSjXPmLo7zWwDgfGpL2vnx6XKjnnOm+/ZYm5bucDq/K6p9D7a1OTJiRqhlUC05KmYxtNkiAa2X3hrPnQR7hvdWnyMd1+E1c9XbOGcUxRUZjELdFrnNMmTkGw+v1QJ54aYG/OAZtlwHGuXP9DKjyX2aSwLEs1/d876TK7FM6DoqjOnjgcL1fv/JQ0tXZe5FtOzut+ZQBhDaNbMmLfgAeW8cU/oZIfpC4OW+xlqyG8bcCeamXbfWeyfnVcIPF9IfIj44aJHJM4vk80SIwOaYF4Zk+Y9KhdQLPmOxyspTXG+TlTQ5Grn4y39KB953e+ta31qWVOK8g+hmsR38iZwYMKU++jBVkeUte7o+VGThPx11Z9kon5Lr9iW5hy18NYGyX273u4GMUqrNhmG2msHOPA+nTtD+r0Y/u/ejg8lKn/NUDOSdb9UDuu04c10Hq2vPcIzopLHFT5zG0etzmsxaSf9LIY6ycNg5+l8viqFe2lQ0K5X89v3BheQedNHFSlkrl15dVHE5xcNDLtX+uB3ZRihc+UTtwyb22/kMkTs7H0KYdy6fNY7NIOwKd4Ww++tGP1lmQZbr8Mjion/Of/OQndaBoSe/1r3/9wp4xzde0BSKNumiasDjozEalnNHQ6LfQLukcrQFq0bYh0onWouTDEbmWt3IYa8sVOikkP/fyUDzhQe6HTx1ePmY9lYy8Lxh598+SQufPM26cY0+B92fOnOmXjHonYwlp2RkwtPVHBouzMqJ3VAZnDxwNuSLnkNG89OKpi3oKV3f34sQgMlFPdbbEI24rD9ctgfso8mjlsh5Iiwf8hKeWl7Z9lmemy+3EKRk0p52q7M+fLY7ldIl/slyXQUZx4Khu2y/HUmKNJz/5PvHE4/VZUr85ZU9JX/Ti7IUS5tnU6SK/vk3MnsKf+htsqqtr/ECcF7gnnuucB4kXitzGKPeHaTZCQKYhPIP69XW89LUMddImBonI+aJwRTimCdc2dCqKz8AwkIxBjOoYdCRpdKAxuLdZxBDjwwuYZmif+cxnus9+9rPd1772tfqAnDE0QrTs6JkXXtPBU7Zz8XIuvCXot3UXJ1T6u7D+vaZLiQHgyGoZS2n7e8mrRY1XDK574nG2ZKpOjEz4ccQ7J2PjidGvermXfB1bo+Roxmo3lg0o7sXoDtE7hmWjLC2aF38M4uNTGlTrVgjIV53Msj135ICStzrTJ/Xx7BLPwmq9C1XZ1u3dJc9ZGGffy6aX3/ETvVysCFmuMmNP+W3dUL9D0jJsP8umF9/4xjfqilJ0WdmRASSvUMLG0Ia37RPgoXUsG6UxVFmVctMGkPqmfA7JdnmfE/Msb1GYHNOEhYBx1Il93iVGYAyMQTqm8zGk82wE6WhGfQwLp/ORj3yk+7u/+7vub//2b+sRMch4tez41a9+tTovz74YfIYyRicGKHyuMASuZ0tCHsbr9JyTrw4gDqslRhSq8anpyoymbh/fvTT7qveLYWRsIx9O1pFc8Yt3xhufws0iMtv49re/Xbf9MqiVn0LiIW1BJsIYWU7gi1/8Yl3CkR5W1G9GbRskT7QRhIekVT5eHIVzTBxqlniTvzgGERyLe46eF0WGvtCwb++BKluzTDOizDQR2Pjwox//qNaVXLS7MiPbzPD31VlS0bmZOpopkecnP/nJyhsZ4StpEf6iH0OZuE48FAiPbrdEj7aDxtCWMwYy8CwYOV8UJsc0YUeRztd29PVAmnmdaTOQH8MBnNLHP/7x7i/+4i/qOcNtduD539e//vXupz/9aR2FO/etNMYxzilGJqPM5MuQLpNNEGeLYzhd0pklHq9HjqI6i5OnBtTvDJN/b9DMYM6V8BPd4489Xg2hbc313uABP+P8la98pfubv/mb7v3vf3+tT4w7/vAmb/Hko3zh4igPCXMUz4dPOSZ155TzIdS2fvJMHsqRThwyQgy867VIvDjF5I0PR3WzKQMxmnjXRgY14sSYimuLvjz27/NVjT3Vkff1Ol5mVI/WWZU2hGwpN0C56eabujtuv6O7+Zaba33iSNr2rDKsS4N9PcnKKw9m13SIvOUtnfgx8OIKk2fkM4/IAck75bY8tOfy2wypxxB41SfNhLJEGUS+Bj30AWmDReGK2PzwTIBGfSZufkiHdzQqNWOys8fWVB2CAdEpyML5l7/85Sonmx7e+c53LsloDCOqOxfRaZ3PDOnDH/5wHe3+5m/+Zl2q0D74e81rXlP1nLFneDhSP9XP+Hjw+7KXvaxu3GCY8KU/MPpmLPJTJ79fYwmEsTHrYNzV49WvfnW5v7/W8/EnHq95czSWlODY08e6o9cdrfUG33z71Kc+VXcmpj/ececd3Stf8cr6K8Celyj3L//yLyvh61//63/dvfSlL619lsxjeMw2yNmW31e+8pXV8XDI5MwRO9oFqY5/8id/UuvvCwjZqILe+MY31gflZChv9TJLQ+qrbRlPD9Lvu+++anTJSTje7aSTVjnqLly9XvjCF1aZfeELX6hpxBHXNmbLeJ/73Ofq7FWd5WtHp/ZgsDlxS7Fveetburf/xturw1YWWf74/h93Xyn69NRTT1cZ1PQvva8uy33t61/rbr7p5hrOqXEwvqUXPdTO3u3hGNXJbDPf3lNv8jV4+ff//t9XOcnD0QYCtvLTn/50lZ22UyezOm0hL/r9rne9q9aD0zLzkq96aweydc9mgzEdV7+tguzw+YEPfKD2RzpDPiD/lGFgxilx7tp/UZsf9vxRwez8EmCOF8/SCyFT7AkbB2WnCJYcGGVKkOWQ7VC0KxU6lo4GOq9rn31hyBhKHTWjNecMEaOjE+sEwyWjFpHdRkgZnBJDow1+7/d+rzoX54wKY4RHOs/4cDr456T0BXzL5+///u8rr76lpk0tC5qxCBNPR/YMAjFo4qjXQw89XBzY/dVoGnnXJbjv/6C+5Pn5L3y++/73vl+d4yO/eKT7/Oc/333wgx+schOvDhCffKJ+aofzLBKoRpLzUicDAEaerr373e+uxpZR5ATkoR7qxvj+9V//dXVO0hgMcC74ZvgzOGC8hOGfgVLXdou/OjGqH/rQh2pchtoSFyPrmQSHZxAgPSfkWp3woy94rseZM4zy/fM///PaLvJFbI56k6H8yc+sCSlH25SmqLza6qzusLfw93CJQy52nXHwZlV22t15x511sP1nf/ZnVTbPuu1Z3V1339V97GMfK2V/u8pB2ZwMvjgmgxbtqy04eLxrZ7L/jd/4jaV6cXLqIf3/+//+v1VX6Js6mtEqz+Dnve99b5WzF6vpmUGFNPIjKzKg/wZE+gUM9XiMxB0LR8M86AH5kqM6skn4aeOCwZVZMN1Z5HtM01LehB2FzsIQMXA6aF6ypey558jw6ChxYnFojtsFeTFuDKeyGGhlMwJmTUaNRukcJ/4YbQ7r137t1+qIniHEv3owlow1g8/QMU7qpSMzlAwVoy2/3/md36mfczGKNkL9/vd/WJ2grxJwIjr76375dd3ddz2nlHuijFC/Vwzhx8ps6/tldnFvKf9t3ctf/soiq4Pdz3/2SI3Tf9G8q4aQwWCY8Wpmo574VD/OXb3IEp9Imfl9HSNzccifQVQn8mFkhb/tbW+rA9I4q3Y5h4FmqBlUDp0hVS8zHE6BDDgWjp8Bl58ZJPkx7GSGyJUcGWn3EEfG2ZpFcYR/8Ad/UGd6yuLsOBCG/tSpMyX+A90Tj9tV6R20A6Wuu7qHHvxZ98lPfLp7+qnjRUa3dM+/94XFob+g1OtwyePx7lvf/E6R0be7hx/6eXfyxOlSt/vrzICDAPrBqYA6kifZ/dZv/Vb367/+69Wx0BvxOBsOxWCEnquP68zC5SsvM6g3v/nNdTamjlZPzPbE+6Vf+qU6U6Z72krd6KB2WSQ4JOWrFz3inM2AMyhZFCbHNGEhiKNh7JGOmlE8w8OIclKZIWX057gdUJbOpuPrYEaJGQkqg7E2g2BIhTM6jLORP4PI8OOHEcGne3gGMz58W37yBj1jb/TJuFi2sgTCMSlHvRn617/u9fXFUJscXviiF9YyGAFlM9qMtPT45Nw4TnJjqMgSQUa2eDCL4pwsB0lr1M8Z4EFajki4c+nl+brXva6WrRwzEYZV/Tg4Dk968iK7pAV8qI90ZMRQm7GogzrKR3nkymkxbuQiDYrMAC/yRdonDlHegBfpyYHsOE5G3tKo8rQJuZFF8hRO7tJoYw7RQMGAwuCEbLQRWcXBqLd25jzk7756IvqjzTlZL6OStWuzogyulK9e6tPP5vqfJsezvKRBqQNHR6Z4xg95S6Ms8otzWDTwoD7qrQ3xmZWARWFyTBN2FDoWw6DD6pyMGEPHGOgAMUjpDC2EbRfCR4yu8s0AzBIYK88wLMVZLmO4gONhRBgNTofBZQAZEvd0WgbPqN9I3n1OgOHyoVrxGB7xdHL1NPMyg2F886DeN9puu/22JQPJADBoDDOjy1DJgzGTR6BOrYGPLJHyzMTI21Hd8eeY9pC/tnCfrOWv7vKNY0YxtniTRyANeXImHIGjsBhbeWhTRtoMyDFlS4fUldEzUxNHfLMuDpNDkw+Zu0cWoCzOlIzlRTbqHDnIQ/twOuomjjwyE+Ms8eqIJ2S2Iz3HZPbCSag7CMd3jLT45BQ5K0+9M+MzS1Ke/NNG9Ac/2hXIUTrXjvKTd5wgcn45oC7khy/tQzbaSLsuCpNjmrCjiEFkBBkaxsSokcGg/DquDjjshMJD2wHGIeVlxmS5xfOR97znPXXd/x/+4R+qo2GAGR2GFYXHGAyGSl6ckaU5y015RsOJWfZAZiQe/ns2YRlPPp4f+aJFNZizD7La5hwwCso0A+FU5GsZCa9mNPIQB0EcgyOjaDnREhtDyOgxrvgVXxzXztWfTDijjMwZIgY1baHdci2ta/Unm5Qvjfzdkw+SRtn4x5sH/5y+5T0ykhZ/mTmonyUtdZW/9qEnZi3yUaf3ve99Vc7Smylx/mStvPAQnhwZUQMP+ocHZamDe+pNDpYzDUS0keU6eURHyce1vPEgDcfzf/7P/6ntaUDD8cQJi2fJzrNIgxzgyMhCnZQtHn6k08b4N8PFk7SWPsmDLLVH4L7rhOW8pTZ8q1Aewq+2V0ek3ReFafPDgkAZn4mbH1I/nY1hZQBcMwyMu47qSBaJo3PqyHVWMZPRdkHH5TDMXORtFG40yIgwSr/6q79anUJmDtqJoTJqZKyMqBlF/QG/Oiz+GT/xPIOQD0PlnnyMsMXnkDklzxgKJ92DDzxYf+dHn0IPP/Sz2vk9q8Gf9JYW5c8xGYnLw3ISPsA9usX4KStLecKM/MUnazMFziB1168dyZjxca1/yxvvcQ7SxyjZTeqaoVZ3aZTDaFvCBPXEi3qKR27aWFyy1r6ctlmjpT9tHceCTzMh991TRtKSIT0wm5K3NlB3ebrPWXFk0ReyYLeQmQie1Fday4LSkkl0kqNQrnwtOcYIqxtdpB/y4Ghci2/m5nmTGTg+zZzFU74lRLM+9+RhtUD+2gZP6pG2sgNS3uqinemddtEW2ox8WszrDwmfd78FfrWV8jKI0P5tWjLAu3D6zW7pA4vA5JgWhGeqYwoYICNUhoBRoEs6XZRf59tpxyQfZTCAZiwMC9IWnBFDkJkOHo1oOQBHhohhY1As12VZUlyORjrGkYHW0fGfMuIMOApxGf3Tp091+w/sr07s2Xc/u/6g3f79B+q1PJSv3xn1K5uhJSNGFZ90SF3IR1z8KAsf4dm5eOSszsLkrw8zNKkLfhkc9/DHWDpnXKVx35GjYmiVR5bqKJ1ylakMcTkvfLIZZkGMoPhxMgx2HImyxJdeGMeEJ+Gplzoogz5E1mRKbxInz7eUw7CTizzIWvvihzPUztLmnjrKV57ItXD5hJShnuFDWdJoJ45MmLpzwo7k6hmZ8pIGCSd3+SlHmDa0Mw7P5MMB4w8vBijiLtox4SXAn3iInBflmKb3mBYEoyFG5pn4EVe6xMjqgEanjBCj1Bvo09XA6XxGm5ZBLEnpLO94xzvqve2QT3Q6I3xkpqDDCVcOo5K4OiQwcHjTkaXlSBkXYGQ5UR2a8xAvaR21r3Nx1I1z4iTkxdEoU/4hceUv3PKV3W22OyvPrAUYQu9eMd7KxzP5SKcMxkPdGEl8yQuMyFMnxiWOjoHGK/1UPwbKrACP7okjnXvOleWI8Cxf98QVz7Vw/FjCs006aYWxI//yX/7LusGAPDITAY5c/tpF3JSFP+lcq6+yQLi45Ev+7glDZIAPMnItH3CUj/olPPVIushMHHyIg9QPH9pVGnGVKz967RUC7WTG9fa3v73GcU8eeMS3NGRPv8nZjNgycvhkbzkwm2Xov/TCWwgbQ8LH7g/zIDdO0NKkNucIOfBheWaVBpT44mj5gEVgmjEtCDrnM3HGFAOgA6sv46HujJBrnTZy0PF3asaEDxQ+8KRsjoKhcd2WI65rcRgtBiVxEEOFRwZGeEgdGHlp1FV5HAFSDoiX9PJNnvhyrWz9Dskvo36jfWQ2Iy3e2rzwIg9IfREjlPrIP+U4Jg9y4ADFwTNyT1oQXzkgDF+pMwL5qXPqlTooW/0zsH3DG95Q+4A8xM2MTtnyJjvkXJl4UTfx5AuMunKTLmXiGdxzHrmSPXLtnrhpD/HkIx5elYm3yI2ziVzUI/KTPvKRh2eObKR6GjgoR7rITTrn0qqLNJwUoy/MrNSg1eDDrMzsdAj5zUPurRYnUK95M6aQOBwu58k5GUiYzS0Ck2NaEJ6pjilQR50QpYPHkEQOjMFOOSbloBiLQBjgRXjiuWZElI8CYQySfFDiSKsjO5c2BO7lPJBWOdK4n/QMXdLqb/TE7NIymuUfBqSdyZAlflwHqSNjKx88iZd83RM/vNNNcC5PkAd+AtdJn3TIeeoXHlyLrw3xi+84VbMJ9ZLWfXFBWWwMuKdOyP3INfkmTeqQst0L347hreUz6YWBc/cgaZC2ccQjOHe/1Rd5ZKblPsfOeOvf9FveKVN85yBuzuXPIdH1tDPHliVTbdPWH5LvkIL2fB4i79WeMTlXP3HxQhfNyBeBZW2eMGGHQMEZXE7JqNII0YAHdNIYkp2AfGM48BHHAzE2OR92SiQ8RsyxNTAgfeI56sAcQkbWbd2SZwjcEwfwlfyMqBk4yyeejzBcDAODxcmElxhlSF6OCW/5T5ktwos0SR9+hCefxHOujgyqey0f7oP0zhkxfJsFIPVQB/IBaZNG2eBauDrG6bYILymzDQNpXScsZeQ+DM/FbesM0iVtHOhQNpBy8GqJGmWmk3uO6pFrpL7yt3JALpbSOG7LeByV9k9Zi0b0AJ8GQXkuSacXhckxTdhRUG4wOjPzzrskni3oADq0Y4xyaLsR48DIMAiAN2EMXMp0HkMECY+hkg84xtAEySf3UAwSiIsSHuMbAxv+Vqu/9CnDSNfRddK4Dq+Qe2MEDBAeUufwEx7lE76EtZCHNCnL/TFyP3xD6p304ihDfTgt58KTt7htfsLx6J5rSNzER+E/ceYBH23euYYYaOVFDo4gHn7Dc8oXP5BPwnI/8s05SrkthKlH2iY0D2vd3wjwgpStXTio1HsRWL3FJkzYIqLgOpjlAksV1t8tG4CloxgZ8RgClHQI2uuWJmwv1mMAwf2hMdeWmY1eqVhP3dZCq3cb0cXI7EqHumSgaBONd6y832eJfVGYHNOEHQcF53iMuixTcFCWKnJvzFgIb+lyYsjLGLUYuz+PrjRshCdxM4gAbbxVo7/TGNO19SDt1VIGUWM0Fj8YXl+psPyODDjyrGtRmBzThB2FDjhUaDOkFmMdNcbjSjB04a81PC3l/pDWipO8LwfG+Ai1fIf3MTBa7XOxzKCuJUQm0MpEvXMcozZum0eQsLF7qyGOdYy2E/LDl2VKzwqz1X1RmBzThB0FQ0WhjbjyCRjfprNDEaxhpzPrDDFuOU+nm0eLgk4aQzM0Ps5b4+K8vd/GaeNdToQvCL8ZHWe7tjZDwsfgmYO21U7yaPO8ltHWtT1vqW3/Max273JDv9Kmlt85JFvEs9NwUZgc04QdhY6LGLAYMks+cTox2EMntFnIi3G1A9ALhNbIbdFHHKMXV4XneYhz72rYpp7tyuGB4RCPYY4RiSFKvfCNgtQD3AflMPDqjWArdbSj0c5GPKuTzSSufbLIrse8O+S+zSbqZ7MJHtSnLds5nrMMl3OkrQwcQLrUOyCvlEuO8ofIpj1v062GjcTdLOSvTbwLRT/wT450hLyEkZc6c9A+WUWGBlNkQDZpZ8eco+h5ZIiUF+cuzhBJGwoii1YebVgbvt1QJyAHeoTykvciMDmmCQuBzppnTPmES6DzjnXYzUBnZQR0IkaawfE1Cd8jy28BMaKMdwyra/EZqyEf8mOM3JOv49AguI8gBiPOyANj31BTtnIYupQRQ7QatUjejEXqZvZpFuolSF8WsfMxTigGFQ9xKuGzRfh1L4Y2RhUPuZ84Ifkq0xce8IGn8Jh8txvzZLNRaEty0v7ax4dc6Yivk5AbJ0QnEJlyVs7jhIA8gDNCLU85JwOyiuwiS+cgXgY+7nGGkZuydkKGawFP4V8/0a7qn4HHIjA5pgkLgy8Y2JHnJUQjcZ0uBhB02K12ROnlwwHkM1B+h+cTn/hENT4MEYPKSSDXjIJ1dNtiA05L58QnA8GIGWELV0Y6r7J02DitjLJ1aOX7OQefofKLsQy48jaDVi5xukb6vlrus0V+DTZfFnffjNE53mw0UTdLM2SNzzgg+aqTuknnHlKf1CVG1BG5L1xdOCRf/vaVdd/Fk+ZKh3ZTD3XQrmacZEhH/CYXZ84Qkx+55HNN5GWAJb1rMo4so8PyJE9yiE4MZRpHFMiHvkhLNx2VAeJttU9sFanbIvmYvvywIFBkiv5M+/IDZdYZ1d/INL/6ykgymDp14glnJHRODmEzX34Ql/GQXlpGwHZXMzXfH/PhTW/oMxQMMeMunvsMkBmVmQhejIJBHxBmOSOzLcZEv5CecZMW3+qjbkh6ZchT2te//vW17d2Dzba7upl9qofRvX7p46Y+gpqPm6of46oMcRk4stUGeDZjlY92cR1jrN7qwulwfkhd1YP+pnwylgdZkAl4EdOOS+Fb1emtpl8NMbBxNGRjRkuevkxBjgZRQBZkoM4GL4i86IN6R8/oeJaLtTVdiPzIEtETRJ5khMjbT2hkkCSP6BDegnny2Kyc1JlNX+3LD6B+wsmm3U2705hmTBN2FBSdoeQgGDbG3FFHdk8HQRAntVUwPDq1zsQoK1uH8la9ZUTGmEFvDTKeGBVOxD0GCY8gPaMhfvusSqc2whbm3OwhSx7qHAeVeuGhNTYbhXohBo2x8IUBMmQ8OCSGw30OCE8MJH7InENCWaZSpxghdVOn1E0852abBhKWCZG0HBGoE4OmXJ/QcXQdZ36lIk4Jn9qDHJH6eLhPPwxSgOzMAqMT5Eke2lr7u+ZYDAK0ufiRH71C5GaJ0HKrARKZyk8a8idP4fTIjN6sWt4cG4iTdrocIC+6gtJPF4HJMU3YUehUmfXo/M4z4hZG4XVSSLzNIEZb52EsYoDkrfPLl6NSHsPhWQIDwZgghofBYbTxGb5DGTkb2TIaMebSODJAfvDO/ZSf+gFDmDpvBKlXkGv15DiNvhlFPAvDCwcZI6iuwhhYDgtv5ICfkFE8GbifmZ96MKyccYyxcGWnLOVqS0uzlmg5xkXu3NoKtIP2UH91IheDCLIRHn1A6u+as7ZkSq7kFFnQD/IwqyQjbWI2kgEQvdAedI6e0CN6IT3Zc0Rx/uJpB+Hh83JCf1BvFJ4WgckxTVgIzFx8E8zPfTgapeqYcUqgc28FSW8kzFgwAEagDDMjIYzhYFiQso3yhTPCfmEVLOX4blnuMQ5GvJyR0XSekzFinJ7Oyxgp37fPkg6Mgi0TuTdcntkIyAoBY8hIcEB4YuRiIJX15S9/ucbFG+elngysNPj3sVAOhDFGwslFXMtx+W0j8mNs47i1GdmqC8dlCYoclWXWZJmLrC63MV0NLX+O5EdmHLi6qT852DBDZsDJkIf6e5ZG3pZO3/jGN1ZnzDkDOUjL2VmyNYukD2StbQyE6KJlfGnkS2/wIZ402sf39hzlp33aPrJIKB+PnDAdx8uiMDmmCTsKyo10PortYTKDuR2dTb6MZPJnnBEwHspzn1FhNHPPkWFIGsAPYiiGsx5x4mjEkdYzCIZKuLI4HUtr7ilTevXkEBkqcRktceWJNgN5Jy1eGD0GFY/upW7KjCMUJi5+GBp8JK548nNMOkuFnC4HK706CncurjpxVkb4jLfRtGsGjCOD1HGztJOI3oSUp33UX7sxwpy1e2RIvo5kzYGQIUee9IF8o0fCyVCayA6RrTB6QI7S0BsOjjNynvYUZx52Uk6phyMd4DANPPC9KEyOacKOg4Lr8FkeYsR0yq1Cvi3SUYUzDDqS50pmadlIwTAYsZoVGJnqcIwCMksys2Nc45iAkRDXaNp9eTBQ0ui0nJRNQR6cZ7akfJ3bvfykAQM15HkzkAcjyuHKWx0YM/XHjzD8mNmpv9ldvkyOBwYvTomxFC5+viAtL4ZaOvUULk/OXXzlI+Wpa+or39ZQX4kI7wg4HA7BL+eSHbmog7r7uQ4ypCviaEu/J0UH6AeK89AeZEaW5ERHHLWRmZP08kPikT350Rffj6Q72oqeyR8feHREi4RyyQB/9AHvZEMvFoXpF2wXBKNJyx7PtF+wpUc6rxEmPbKergP6OQcKnxkF48YhbPYXbFvDqEx5gtmBji3/GAO8iMNwGP06d184ZyIe4yAseZgVuGZUGB1tp2+YNchfOCOkAyedvD0vUKb7Ora8N2Jo8JYjUj/5O88yIhlxII4eyJMjw6o+DC9ZWorDh3P1BtfIQAGv+GJY5SOtZyv0Vr1iMMXHg3Yzu8zSVWYWaS90NUA90u5mOHHw6u2oXtpZ+zHSzrWpemZJLu0tHysCQFbSkq3BGIjHuXF2AbmTI51SnuVTAx58kC1ol6HObFS+0aNAXzFQHPsF2xZ4y4YlOsDJLgLTdvEFQQfQuAwc40UJKCoZb1TJrkboGDp/OrQOyrgLS8fTEbPVVrzMctaSj7zFST6u4wCcZ5SvLJAnQ5D70iY+Y6Ls3IujY2jov/vhyTmHwGAx6Om0Or2ylKsc9+UP8kWbRfiVBz7lj+TvHt6yhORcHMTQxTlKHyfuXDzxOS35CAPppFE3ecpfOseUKb+UFUQ+VyLwjtSdDCNLdcF37jlXR22cuoK6qjN9IB/2URr5iIvcj9zlEznRFYMC4dLQd3oiDV0RL+0ZPsNjK8/tkK06sumWYrU756St27yVzwmzWQY2BijqsAhMS3kTdhwxojoAh6QD6IiQDjik9aCNm86LlBe05xBjDG1a5wwDkka8wH0GicHAd3gXl9FG6hTjHL6ki7FqjXXuD2mIsbAWyR8/+GXk8IhXaMuMkcx1oAz1lY84ua9u6mRW284eW4ifdJHb1QR1V1/yI7e0u/DoArgvXmRFj1HkKVy6Vo7CwHV0nlOSDnJfHpGf8wwcQH7Oc70opD45p1dtf1gEJsc0YUeRjkXBjbaty5s9xgDkOISw0HrQxmuNaIylMAaGARDXaBUvEIOUdOEJ4d19nTMzoWE8xkS+rsVXDkoeII04WzUyMVaQ/FtKfaGtB74dg/AImT21wC+jisSTL/4Z0dQNH+GlvXclIzxHTs7xjm91Fu6YetATFDnSmchSXIMA9XaeOK2uCM8sSDzlyQ+UQb4pN7KE8NiGwfB6J5A6KCszPasBeF0UJsc0YSGw9m5Lrnc6vFNjDZ8xjFHQCVwPDeRKuDdGa0P+6dQMBAKdH8VpxCg5Jn5rsBAe2/wuBxiPFnjBY5aH8Kge6jWM2yLpLmddLjfIJ3qX9gdhkSVEVxGZSRe9iAwjT4hME294fqUCf5GBfmIZl1NaJN+TY5qwo0inp+iUm6LHwFN0I0uUDhvlTyffLsif0fYMC3lu2n4RIS+TCvOA24Nh5Nw9jjQzLPwCXmO05L/TWE0m+PBsDv+eBzimTsj7MyjnZOD5gbgeuBs4LKIOVypSd46IHMknO0jJkqxck53zvHhMd5yLT5Y2nmgjMyTH5EvfnWun1drxSgA+w7fnUOSRjS6LwrT5YZuRBh0q3nZsfkjecDkVeyN8iKuzc0wMu2sPUREnRS4MPFkw+Do9J+CezQ+Zycxymx2HmM9D5Ctv+Xr7nrFJZ6PbHBDDzEAnXJh3WYQxSAwKnjhX53GicUwpZz2YF2+19Mm/pYBM9VM7HsmPM3XtXD3UR5j6I2HqKUz91Z38LduoU5t3MBa2GjYa/3IjbUpu+qidoeTD0ZCZvpuBCnnSC44oLyeTIwdFzz1Hcozuk0XrmJzDRmQk7nbKFB/zNj/gEzlXX05XncVZ1OaHyTHtEIZKtOyYftTdfsdt3bPvvrsoKCMgrhiM7vpp/Wm2T5nHsFZn0QHSOdMpb73VS4QHS+LCX+kAe/dx0NbvV9uVt9qS3dp1ZVwYbl8a52gY44yOGR/XMeocFz4YHXF9GQAPHl6jOFphqVtoPZgXb73ph2BE1OMjH/nI0nfWyDpOXj1yZGBQtjGbAah7niWoFwM9xEZ522xdLhfIUL21/xe+8IX6aSAyMksgTzIjPxQH5Vw612ZPXnUgR3bS8heb6T4dlrfzrTim7cRqjglFB8RBBpVeQRBnEZjeY9pmRHYaVuNzSKb1Or+R2Ic//MHuVa9+Vfcrb/iVpdG3Rj977mx33VGNfqGY2NkovPyV3Or5EBcvJHyt1djtW62d1znW02kot0/YkMGzn92/jHr0uqPdsaePdUeOHun2FHkdO3ay6po4OvbK95gudUyXqm5f10vDuzrC9c7RZz7zmfoelZca7aYzk5K/mVm7VKFdtA+DbvSsPb0ki2/x8AUcE7gfOUQH5mG9clwtjxZ0jCPlmMjNbJyhgfCifjGO+Me3dAyu+qmbl0zFWw3kElo5m13Geut3uTAmV2H446g/9KEPVVkZhHshdig/skNkoG87NwjwSSvv5/lcER1LHJA+5cpnDGN8BVuV3TBves+hjr3HlLjODdrE0w/IY9oufpVD4yJGIA1NSRO+azdF213XqI3IH3jgJ93pM+v/hUjpe5LXjIoi7SRtBerOORl9Hj9xvDt56mT32KOPVWf10IN+YbVfm58P91bSkL+kH15D5G5GYAt0vorg3CiQgWHUnSNbpIVxTo5WDnRQo+gcEYeXc3VLOSho+Wl5WgurpWvLIds4WDM6BiRfquB8jeJTD+fqaZSco4ER3g0+1WdIBqfu5xkbKDNGd4i27juNVg5DmoehXNFwYEGO5GcAwzlZeiY7FNllR54jfeF8DECjF+SGnGc2biBgQDAmuyFPLS0akR8+42BXk+l2Y1rK20Gk8zKG5Edhf/TjH1aFZzj27N7bffBDH+i+9tWvdefPXeiedas3vg92u3eVTlL+Sveqx/G/Pk7/t6dQ37EuB60G9Y9B02l1ytuedXt3oHRoMyM/Mnf+wvnasW+88aY68jc6W7mUV5OvA/MjGvkxvJ4DeMaHGGsjZDMG5JlBDIl4roXngbc21B+0Iz6FOXeURhkM2lA2a8koWG+8ITgljsOyDDlytka2+Le0hwyA8Kx+caz4tpynHeqsvQyi1MO9lsRXb21CZgywMhnzeaP/sbpstn6bxWbKo3uW5Tggzsg2aYaZDMmXzMiVLNlF58LoiwEm/SZH8iTb6Ai5kqPlP3xFjpcL+iV9nreUhzgi/JOH+hnkTM+YrmKQG2hY54wr+TEKDz74QHVMjMeJMnP48Ic/XIzfA9UoP+9591TDsmuXNeiSx0X59GSwEqJUwhyVcfGiY69IiyBIHdeC+IyXTpglsLqMd/RI90CRxQc++IG6LMkA3HnnXSsck2+UbZdjyoyHk7FWjpTx+c9/vn6lm+FmPOi6zqitci4dw68NHfEYA+5cp5VePP3DCDoPv2G9slpvPGjjchKcPifKcMTI+B0gdWNYGET8MqTqFWOJ1DXPTtQHiRdSN3JQp8watOc8pwRjddlI/bYDmylP+8YxMcQGGuTq5y58tZ2cyYIMyY3zIUvX5KRPck4JiwzJ1H3n5KyNzLouF1ZzTC30RTpipsdueVl4EZiW8rYZGhbFiKehe2fSvxcAJ46fqIp6+vTZ2uGFO+4us6iSSyFNM0bKaI+cWP8wdVHYSIfPqJpTQlkWOFdmiI7unTh5onv8if6BsvsrMb5ctF6kPQL5hyfl44mRZYSybGOZz2zNuZ/osP7+2te+tj4/cM+zVs5VfMuBri2TMe7yi0MaHiH8jNFaWCtuex8xKgwK3fIMSV3w3dbR85DXve519fmSa/fda8lgiRHjACHym8fHlYz0yzEK0lfBuUGN+uuf2pycDJoiz8jxLW95S/2VYudWRNzzi8lIOk6ODDmm6MkYXUmIgzZwpOOLwrT5YYfAACIyNOqnjEZifp+Hwhqxf/d73+6+/a3vViVlABiITJX7Zrn08zmXGureSV2pwD/eGUiOmB4x5nv37a7LI2aMFP/FL3pxd8+9z68O24jUxojf/u3f7vbuyQP2MSN4adiynFaCHtv8YFfeG97whu41r3lNXU754Ac/WEfJRoyMh7IYI53QyFd+2UXFGGtTS3ZGmRwao8UheXEY3+985ztr20ofJyjPtGOOWwW+UldG08j94x//eJUtQ6iv/vmf/3mVuWXL3/iN36j1wG/4wT9SX7zG8QyRHx30O1WMcKuj8+Q9Vs+t1j1lOVoqI1vOIgMMR22avocY1pyLv9ZMj7ze//73V0PM+dAJrxjYcUc+73rXu2r56qJsei1Pzl87aHf36Ui7XEeXLPWZfeGdbmujFqvJZ7tkF8RBrrX5Qf30Hf3Wfcubi8DkmHYIOkkL02FfPKDkDDHD9o1vfL0aCjOGUydPdTfceEO3b2+ZNe0pHagY5D17lw2ajgW2VV+KK9c5XThfjMa5s7Vj0iFLITfccF2tv2dLjz/2ePe8e8qo/KiPYvY/GX6iGPqbb3lW947fekfNo1/aXD9GVLrOHsjf19192Z1jYkx0TDquczK6jLf0jM4wHwZNGEeU5SwdXJ0smVnSe/vb316X8yzTxAD2y5HLbbldoGPyjGP6xCc+UY2HkTzn+Fd/9Vc1nL699a1vrfyIC/3svOdPHvRLXcaMdgyqWSPHxzHFWc/DWF23Wv84UE7IkhjDT9bq5NrRAE97aFMDDk5auP6nzTicsSU0vGlb9fRjgOooLZ3ws+ccE/z+7/9+7bN4IUNlxDE5lzfZZFATyN+zPO3hHj0ZOqZgJ2Q31OX1OiZLkpw1B0WvDHIWgckxbTNGxFlwocrPqPNzn/tcfQZBgRkyHev8hbPdgw882J07f25p5Ldv38qOv6wwW1vaulzghM6dLfUrTorxO3LkUB1dMi533/Wc6pwf+cUvivE4Wup/vhjWu7vffsc/m3XIrTtenZBjMmOy3GL0r2wdUzswLEaDZMz4xfA6Z9h0ZPyKZzTsmNGwNvM8QRwzEx1c+0qLf3mNGfytIrqGP3XIjMnvStErI39OBR9m6fTKaD1OKdfS45E83BuC7orzS7/0S3WJKl+Gl34e+nZbibGwjQK/HIC+pB+pl4GCZ4d45Eg4DrNXTsDs2P04Mvxz1EOQB3lyTOQWx2QJ1IzRs0i2kAFPHwVtTnaOyrBchy9h5C4eUjaHKR4HadnP4CFYS15bld3QLuFjnmNqwSlZ6VF3gzmOfxGYNj8sBP228Sz5ON+7b2938ND+7gUvvKcoxi11aeumm28onb7Qzdd1tz7r5u76G45WuuHGcn3rjaVD3VDPb7zp+kJHCzlfi24oJP7lIXW65ZabKt1x523dXXffUerhq9W3dLff8azuOc+9u+jUbd2Fi+dmo9wni3wulHpe373wBS8ssjPTIMOtdUzOxKiZAWcQdEbGldFlOBgmpMO2BkU6fCH3OSRxwP10ZHkxZnmW4Fo896XbqmFZDcoxomVA8KBuHCPe8QgMJb1joPDmaOQuHQPumkENXIekVSeGy5GRXas+Y/e3QwbqE761hfqqP/uEV4ML8lZXTizG37n4+DfAGCK8cXoGMOKYXSH5soPKkbdr+eMj15yOdPgzYInjpksZoAj3vE6e+OKggrXktR2ya4E3Mltr84N6sVvqb/MD+S0C04xpmxHZwXIjX6jv7tz/4/u7d7/73dUp3XvPvd099z63u/vZt5cOs7sYkeOl0a/vDh0+1O0thuBCyaMayELdLsreG5OLF5vNASV8Li4OR+i5XuyMy+znbJkpeeeKQVO3Y8f8bPXZEtav+QPj+M1vfLf7ylf+qTt04Lru5S9/ZffP//k/L/G9YGspDP+b75yWJHRCI1+zJQ/7dUQdjwFnZBjggKwZHXpvFG0p0KYBI3RGCcTHv7Q6umtGhwGEGC7hjtuN6BkDw+F6wRZ/ZkyMiLoxKPiIUWUwOS2GOs8PvEtmwGmpppVBEGOrbjHEyW+ewRwLnxd3LaSe4Fy/wDc5m70J41C0Cx6BTNSP43JffdVB/cbqmHq1MybyePnLX17vGdQog/zkgwdyZdTBDM1SKgNPTzhxckPSiy9/5/qBdPIKWtlsp+wCZbfQfutZysvAjP7TkUXtyptmTDsGo2nHvpFPnzrdPfrYL7rPfvYzNezuu+/qXvNLryrnloqOd2fPner27N1dlP1EGaE8VeTunZ9TpbOdrp3qxAnblY93p8+crnFOn2ZwTq1C7vdGKdcnC50q54ulk92ZUofTZ051J0+Vup08Xujp6icvXLzQHTt+rChaGcUf2N/tLgbjK1/9Wrne091+5+3dS15yXzktEYsgvafVY3Md1KiPceEAdUTb9Y1Y6XgMBYONzBzcc86w6JT0n7G3VOaeNI5GwAwMIylMh2cgM0pGqxnw7YAyGWHPMPRRxtkR8IRHdXGMQcwRr5agPDvwsN9MQb1aEhepg/itU5pXr7Hw7ZBByozMORmG1FFYruMEEp8zQbmeh3bGxAiTpTylFdbqR2TjSCZWQ8jYbMggXnxxkXTaxHkcZMvHvPNgNZ43A3o9b8YUAu3NB8T+q+sisP3DuAm1U6RhPTdyTRE4CQ193XVFEW6/tXQknajc787VjQ5nz3EiPZ0rhq0+l/Hc6dzZQueKge+XJ86ePT+jfgv2OI3Eqfkslvp69LM0R9/Du3C+yKOQl4pLFSuf+/ZalvGje7cUufQ7xVpcKA68d/LCNzfrY6hA27TnjEQcS46IoYsRYWQS1saVXhznIXnHMKac7UaMb84Bn63BU3bqhn9HvIav1CVxcz2kGHxx5J38LxeUH75S97RBKwttFJmk3vN4Tzqge+JJgyByVGYrJ/ddOxqMtPFyTBz38HC1gBw46ryrZ3C3KEyOaYdx/pwp/Lm6weFsMcqW4iwT+JDpqTKDOHf+bOkEy+83we7dRbn3FaXfUzrTrCPpKJS6NQ79Etc8Wh75hOS1aPINPMt3e3XQcrSkt6d01P6FYCPf/aUDcE6l3rv2FbncVg2KmaLPLEFxYfW40inlfNmgrIZWdjFWrnU+BsUxlGWXnEOMnHAkHxAnEMYBxAgxSIm3U2gNqrKQegWpU84NUNQpg5XcN+I36En9WmrzULc2/yHCw3ZiLM+EzSM84jVtMRYnBOoJuY6OuHav1ZFct7IJafP05WFa8kVknfJatPxArtuwRQLfloOtmFmqNGtaFCbHtO3QgXulRbZ+gw5y+MjhGmZJT2MfOtz/IqRZkW3VnFE/Kjdj6GdLZhm9Esvn6qM4IM+8ckR795ZZyf5Dpc7e97HUebZ7+tjTdWRmlKYj7y4Otkix/vVyDdpzcH9IK5H20A7y1ulAp2fEGJQYXPdjDKRxHWOS+C2B8NZxBcKT104DL8oOr/iGnMeYIvXFbyuHyGBI4jlCZv3XGtLm6sqxZCBCPuSZ+5ERPXIeOSZ8CPciP/k6H2JR+rFe0A/1xqvNJHY6et62qI0PcKkkJ2wL+s8ElRFUmfUA5aOY1mh17scef6x7+qnj3b5ioA8eOFruU96i5HuN8Iy4ilEoYb6nt3eP2UZPrjdL8r881POdI7KUZ/cdu+j6zNkz3ROPP1VlQ1b7isMqEql/xbRXeWwHYgRitGNcghjuQPwY53kGJPfkmU4dg79ItMbTsZ0xxJiGUpehk0r9W0p9nAeuI8NgnnyuBpBP6mpWU5fTi0NKuGPkOgb39W2yhVZWLdyP04PkdyXJDu/RJfxaBVA3dVwUJse0A7CDzK461Damcw9HOavjZYrsoTP9tfPs5ImzJexEd/zpk92J44VOnK5kJnHmdOksDQm76uh0cyzkJy6Olfo6N3s6d9bLtk+UjnCgzCw9ULaltziF6pa2r9MyPJB28WDXzju79ixXONqt5JjdSDYW2J0knpluS4kvnmWPy4UYE0jdGFi8hz/1QTaBIOdmp5GB+pDBsI5IfMYa5N8aXgbsSjKsm0H4Vy8OqZ0hO2Z3mvYmC8dQZEmOdMA5mbnXyk87aI92BjYmu7GwywWzY3WiJ/heFKbt4pvGcDmpR2R37nz/Re39xdBalrNM5SXA93/gH+qynfeTjJxe+9pXF2O8t/vhD39U4/uyQ/05iyL7Pbv7kW47UrMhYrO4eJl0naP2fKluhJgpdxFBmS3u7Y4cPdrddedd3U8f+Gn9SOZTTx7rDh8+VJcPfvPtv13jGj8ViZT/Y+OoeZVaGc4w+CSRj3H6goHt4gYJvsTBGDM8nJYRInnrhI6MiS3EDImdfHYvQfpH2scI2K6lV73qVZcYbthuQxM9A2v/lkA/9rGP1feofNPPS6R26akbo4In9UPO1dO5fm03md1ntjmryxDi21WmTSznSMvpWQFQr/XWbasyGMp0LYyVN5ZHwtRTH/37v//7urPOy7XqrK50xz1x5CtNZInoiZe3pbPtmjwTDxzJy648y2N2eDof43GrchrDsN70G8/ztovHcXo3zgvGBtG+HkImi8DkmDaNOY5p9qC+vn9UYAu0r2czDoyvt/MZMDvzGA6KfPbsqeqY6nbN4pQYbxsEhpBP3zbjZa+FC9uv7+sCx0SXGFCUpQEGTl2e85zn1lHZz3/+SDX+RuY69m+/4501bZ9HcQKXvJu1WideGXfMMTG2vpXnKwKMD0MBOiVicPCCNyPHbLkW16DCfR2cgbJjSb38uGFenhSOvyz1zed140gfhTgmn1tiSH1ElPx8h9A7SnhjDCEbHjLYUT8G19ZoW8bVLfkG0jCqvvzgPSl6qt5ZIlwvtlr/IV9rYay8eXkIF58s/BQL+ZGl+tIP77/5CgLjLa76R5Zk49q3Hzlu8skAByLvzKjpOCPPOY1hO/UkGNZ7LceEtC152FJugONbnuSxCEyOadNY3TG14FCefPKJ7v4y8v7sZz5bFeCWW2+p3+Ay/T95sv/hvJfe99Jq3MiesqcdvO+TX6x1vVlc3H59Xzd04geK8bS8oWPeWYw3g2q0ftvtt3V+9uPI4aN1BvV40TkOwAdR6WAc2044pve+97313SZOiUPRGfFKzs4dY4Q4IwaGMddODDNDzvDrwNrSxznNWvAvnjxiwOfzunFEN2CeY/qbv/mb+kki5ZpF4V9d8Iyf8MRAkYXdomaOQxgtW4JimIyY81Ir2kidtrP+24nIETgf38oz48xHXOmon1u3HOoTRxwNfSBLlEGKwSc90t7iOIL8nctbHnSHbnsnbgw7Iae2joDv1RwTONdv9A/91gaIRb3HOjmmTWPomPrrIrml82Xs7p4oSvCjMqL63Ge/0N330vu6e553T/etb3+r+9KXvlCNASWlrIw2JbdbTW59jpc00aawuXnW1mAJDp586snuq1/9Sh19MZ4vfvFLuocefqj7f/5//08dYb761a8qzuJV3YMPPdg9/NDPVjgmsIV+tnt8Bfr7a4/a5zkmb/lzLL4Bhi+Ox0wHtAPEELknjGE3cHAuXN/QR3TgN7/5zXVUyUCJB3iUNnXZDqSPQuuYlM0xMTaMjnCzJQY1b+2rbwynemS2h2fOdGgSfKCWg7NMmRlTMIy7Graz/juFfMSVY8q38jgmS77k5Wsk0YfoiXCkvaMjDH9ko97ikqFVEv19ox9x3SqG7bSaYwqkMcvjTGP/F/Xlh/XPwyesE/PNf1XQC14m3dfddPNN3Que/4Lu3NkLxfk/UV80tX364IHDM6ekaYy49hTT3lIxcN2+TdGey0DqYcu7XYc2ORw+fF1xOjeWUeahpQ0PNnscPHi4dJA76s7DRYKBYZg9oLYUw3kha+u+AOCcQbHO7pxhMTtyFN+5kbBOzjDp8AwXMFbanKHaiAHfCpSNB1C+a4NLTtOSlIEBcp5fZW3rKUzdWvKCpRkTOZkVMrLqs6g6XS6oJ0fN8TPM2pqDiswQR0aW9MM95Jz+RJdC5EiGdO5qkB3dwa/Zklnz2Gx6pzA5pk2D6EJrw3KUzQw2Png/iXO6/fY769cODh86Wox2v0X8fN1G3Y/EKO+FC4iSuDaaufJHnSuxu3C8tzqiO0p9n3/vC8oI/lnFeF7oTp080x06dKR77nPv6XxNnEMWt7tYHPLsfaf+nINu5T2k9YOjaEeFjDdDYUYVQ41iqD2j8Rta+TXY3GN83HfO6DNgZmBmE0bNAafUlreT6PVl+SVQZTOunArjGcPJkSK8W07Ozzo4qldkEGKULVd5bpYlzJRxrYMMtal6c1BkRiba3jEOiJ5Y7vviF79Y5SjMvdwX1wBBfmYoZqpXOuitwZb2R1kBWAQ21qsnrIKIcmgs+/N+p12/5qxTa3SGzBq25QLKClkiSMdHrjNKbZHrxENtuiGVHJbImD7n0F6fK3nkfOxa3DFq44T81a89lA6pc3uGZIeeL2K4fvFLXlI/lLmo33lpQSaWuSyfaos4kZbSMc2IzBZAvEAc9cC/XW3y8+A7bdzSsD22G8kzZVl28dzM8ybOMjxxMgyjc3UyW/R8hI6NwbMnPxehbpwTyOtaB/loS/W21G6zQjsLDrk2MOHsOR86Ix6Zh1xbnpaHPh85XslQL3zTFzreDrh2GtMzpm3Bcidljsdg1Hr/j3/affSjH62/a/LGN/5KUep9daRuJKYDZKcaZXAcQnu0SBtxZqCTWMahQM4ZD0cQN1xWR1HmJmdnhmhfKc89TgTOlfw805F3TXdhtrtsppjFzNYjxES36YewccPHWr9dRpWWPqxl9x8MPVSfMx05fKR02v7H275SRu6+wn799Z4x/bMapmw8z3/GtDbI2ejV72GRv+cwOtsYov9kZwnDaJix8QwK38FY2Wm35AHzeFwv72No888zJrrlAbW6cUqWYQBPw7LUjVOyvGSk7xmbr64LH8ZNOe7FMAtz3EgdNhL3cqF9xqStfaldP0Kpc4tc05O//Mu/rJtMkAEBRHZtWsfIcQzzwreC8BGs9YxJfHUWj+4buNCp7FzdabRD+wmbBjH21Jv8S6kuS1Ukbj97YhyNpDS4UWxGWEBJWjKiNTKjKFmnRjEYcWjiZGtqIP3Fkv6ctKf6FyX3lnScEpQRSv9yUaF9vlahI5b4OL1QZjdoV3EwaiNMfMclHoSV+0OS34Wi3PW6XIb27NrdHSi83nzDjd1NN9zQHTl0uIZxPnsKr87744xKuUN5oPVCJyMzR+kiq3mkDXIUl4zH4gwp8kBBe95iXvhmgUd5qiPgZ54BFO5+HFGuh3VsSZxgLE9hq9HVCjIiG/1zKJPIrJVNdEVYSLxQ4kZPtlsPtorwo83YETNBy9wG14sCezLhMoKyc06my1H0GIsgypslvizrhYYd37lwDiwPwqFN4568nEMMN6eW9MJ0ohi8OMQYeJA/Sr5DSjz1tFzmPQ+UDtouKyVu0g3zQi1WuzeE+8kT1AltBW3Zbf6r0U6B/MhTGfQj+uA4RvMwdm+9aZ/pIHs6ED3WDvNoJ3VhO4A/bW02ns0z0+aHZxA4o4zEGJZ5HT+KIo74lL+dPcWpUCRxODvnbRxHxphTyD3hOgqlMyIyQlIWZ+MecB7C8lmb7MyCdMR0tFyHUp5lSssjnucg/CWNshJfvsPzdGTkOucbQYzqPPluFvjA35DwOQ87xYt2Vy55Jn/yp1tDWs0pbzdfzwREHzNQA23RUqsfkDa60uWNX7ZCHRaFyTFtO4h0NVqJVjFjcMeMrjhxXBTfNl5vo3/mM5+pn/Kxq+pLX/pSDfPcgPExM+FwPFsRx7NCWz/lE+PEWXn47X2eT33qU/WcItoaa4eWN745JM8w7EzzjMZ5eEyHcz2muO19Ds1atTLi3Fqn1KKVy2pGdL2Ig0xeylX3MVlvBHhM3XPM+SIR/SBTlDB8xFi2JDwyRuTiOGHzIFOyjy5HHxyHdDUAn35E0IYNG3useCwKW+/xE3YErfLGeEAMiHcoPv3pT9cH1xyRB5mciZ93tl3Vw35xOaK8m2LLat65YZwYMuWIwyl5yJ9ZEmfEKZlFZTbmXLjOJm9heGHwHdMh3Ws7qGszMQ7JQ+Js+JAGD0icxM055FzcUIt54UPgRZ05I+fD+OSAZ0f38OSobp7/mfElLPEBf8LFa0m81D8YlrmdwE8cTq7xYQAS/loZ4wW5n003QAaZRSde5AbJQ5yUdS0jcoK2vs7JyD3njoy4lQCyhqRF0QuUpesrFXhLO4f3VvcXgWULMOGyQqMPaYiEUxJOiCOxiwgYTx3FzAh5b4Uj4VzsqNR5HK0Vcw4cA+VjPC3PcXTuU0L3pDXbEicd0r3/f3t3kyO7saNh+AK9Ay/CQwMeHLgNw3MvqxflseFFeOy13PuU+7XZ0cqq/FVV5dEHBCTFD4NkkAxFSMpUX1LHJOeoX2+ANYnhsTZ4lQQ2qyTJhCbYoS0golubNZjfC2jjE/10KOHZxGzSpCuTvPPyTOJkJF+TNR1KztUx0dKh1eCkP+WRN4+PQH03rsbPmJIFf/hMNrw7KjcerWTTQeVdK6MHMukjucD1I+V6LyQXm6YneqATyXl6oSP6VY+O1JWfruldnkTPxoUtfgaQCb99GLwX/ut//oP/Pf9/MCgCSUbpQ7O9fivp2cD5BTarF6+S9mrmpQ6tvsDTj0r6vuSnn356+TZC0Pjtt99exqq3/Wy7OXoVWP+MSz0TmWR88WSS8zq0n+sx3mh7tuTVakHIikcSqOU7t40oAKNhstPO3WAfmcaro770qz75PW/qWZk8MHlxdpOFMq/rpp9TejqVvyIHwyOd9U0KPZrIyd+Hk30469oHqcpM3Hiz8vQTNWtd26UCkG9+6KfJAX8lOJffS2CSFzgESP377sa2i5Wz7V1bsPgjB3nwS55+rUC9guz8yFg5WcksqBqTXtSBxvYRMr0XTBx0YxXp+y+6pNe2yvv1h/VDZHpSxwRFj3Tmg2x6d/NI52xFfnbCJ7awhz7ZpjiBdys9r4zzW33zU8nkaWIVC+jAt3r8dg8cK6ZPhIymCUIw4kAChaBh9cGY1BFI/A2C34bzywWcpN9zE8jUh1Yy6HAUE6hgLVhxIk7muZLgzUA5GRpWZH7mn5NySv1wWsEfClh4CfjTR4EbViec+afqXAMT01yt4QvdJlyOagIXMDybK8CbwEzYPoJ2MyFY+Z5DmZc4OCo6Jn16ManS6ZR74lT+rUBXoGmilwTAJnoTCl7xnQyObjR9++Q7JuXlqydQuWZT6LAp+tNXY/PMoEtjSX+tiuiVXub4S77xdPPHTpwrl9iR+vSPljFhJ/T4UWF8jTlZ+aqJix10Q7IHjonpE4HBCLACqQlAQOQUTUjKGJM8zsAB2oIyqQguyvulA5MTB+EsrjkRmlZZ7pTcPXJGk1pbhu2jC+6cte0td5n6amLk1IAe5OBNqNqvqG5HmHlb6VzgR5+Scyk+ORydWKFJVp9WVYK1oO3jQ0HHh5PK/ZCpoyDkXHA3sdMl2YwDupfwdyvI0oTYpIEXPOHNLxeYYCXnHmY79wGpv7Pw6xvkNfmSiQ6SU4BtXEtdPzPIx15M+ORl9/SW7ujGOV2xEz+Ua4fBj79W7qjcsZ8i6gbiI4MNSfy9SZj8e+GYmD4RGLPg486V07izF0AZu4nKRGKCyVGUcxxbZ4KlAOVaELI6MElxEqsfdTmO9vIZpIDd9pf+ONcPP/zwEswYqjpogiBogpTU7c4aOLVrE6PtDJPkXFntAU5me7GgTZd0QkYTOT2aeMhGf7Yt2nIld0lZwUjgLkip20SP7gq6SB+PAvrGjpx0Lqg6Jx9+BUqTjxURfskszy9FOPazO+74nSsnGx24YxaYjBe66D8btsZHHlshO53xHbpMP3TjXB498jvnyhwlOlTGXvgNH9nzpuVS8BF2BHY4jL0bXXzvheMZ004QsG59xsRgTEy25Dw3AH84ZoKw7Wa7zRh9+fLlZeL59ddfX+jr14qGk3WXl8PJ9yafuyL5ArVXx423FZTJylYgA+WUxt8Ky1afLTwTmWurLH8lwSEZcqu4Apig7Vx+20by8NFkQTarLxOsMrymn0v0tAXymNCtIuneGAjaZDAx019blJ4L0IvzyjxTkN+1caweXZhsySL40FvbHsk25bhVlhUmCqtRvJl0JIHUNZkksse31S/eXdt+7WUZzwnJ0TMz124kyG7lTGduYJqgVtmeAWyPXsjIRiW7B9mDWDhtwLmj8mlL9EeP1fN8T7n2fMmExVe3sIc++T6f2HrGFNgz+8C3evxa2gPHiukTQoDvrpjhM3oGz4l+/vnnl60EjsX4BHiTlIAisDC+Aor2DFGZfHdJgpxzhoqeugzUKoAhq28CkQRg/Zic3AlGo8kIj5I8yepKXxK+YM+gpi+8SU2IZJDwaRVnq1EQJqtgT6+CjgDNSU3y8h0Fe+faNonTQbK9R+Amm3HXtzFxI4E3+Va1eCafAExWNxSCKdmU0UHP3Zwn35SNPHvKtDeSzdGNFLn5Aj9i9+mFDh0lk5ctb7rseRwdqiPxHz7AV9wEZiMTH02vfERiT53vhWPFtBPusWJiGAycIxgXwUfQcO6uxzaCZyECvzrGzSrI1owtGmNntSJg6ZfBacvZlMt3NyeIaSO5Q8IzR1KONh7woq5VDUdzl+68II8+/pJRX1ZWdMCOTGjVk+CRKyb6F5CtFmzTCbR4ALprgtKvfOXyQYChJ3LSieBSEqyMZTTp0QQsCIXJ+5T3XpgrJuNjnPBljPBCLvyRh3xNpMqMtbbGBP8CsHHtZiZd9PxJmfZoz/F9BpCJ7VntWPGyaXojp2S8swt6mDYA2rnumQydunZEh87RZCPqtKqGvXXIH0+tmOghftgWuBa3kvXROH5dfCcweKubf35d/L//duxz0bgI4O5+GZdAY6IQLAQa14KoQIx++8LqqC/QcAgBCdQTeLWVrw3aAqu2rr2CzkBtP9iqwrNrNJSj65rRJo+jMsm5O0p2ZKuolwYEwaCOfm0bmjw4iX+wrSy610L/nNBHyfRvAjfpkj9d0CHduqYncpncBRw6wjMdrEgXIBCRGTZc6y6yQLYAAoyVj7cwPe/wrMwkIp985BB81HfeuJmQbPOxS4HJsxBjqI5EH92EsAU2AsrCveR5T5CvMWSfv//++8uk7Hmj7WnldMk28qdAF3RpleSXutkI+3YTSC/pXLvOwTX9hkfrUN8T5LVi3vp1cTyqLwZYHbbCbvW9B46tvE8ERsMJBE2Bm/MIJM4dTSzqOApEyt3ZdQcsaHa3m4MINu7elGlnYkPPtX44kGAnocdY0VDGSNV1NMlor746UpMSyO9uPcM/hemk8/wW6FOQxReagpA8fJGlSb07XLI0WQO+lbteU/qVkvlUehTQxiP5gGx4ib94J2tj67p8srKZdFEb1/LVmXYzx/azgxzZ50zpEuiBXdBL+pHopjwwBnQlaT+vJf3McXq0XVyDyZOJyU6HGzuT8144JqZPBIGhNMHIBYrgmmPN+gytegUXcM1ZpnN0Xlt3VLYfCrzlT0y61Zl0OLYJrC0O/CnXRlrrh7WfW4AvOrCidLdoNcTp3BE6yusZE0eUJ9ktsPJwl4mfNeEbbSkZ9kT944Vstkvxj2+JTAWX5OroTthKIDkai1L0K2tl+IyYY0gndDNtoOeKM6VT54L41E86RBNWO+/4kWEyIjcbopO9cDxj2gkC263PmCYYuyAbjS06s2ym2uYwID+s9d0VdtdcW2mCw3HK2jDizpW5SwR3liY5d+3K2mJ0Dt4EExBMlvd+K892nC0XY2Hb0HgIOuzbsy1JuWN5fVCMH88JPCOYwNelvN0qS6hv+iWft+fI5px8TUB0mmzkkte1c3XdNLgBMU7RlYy3Y/3N67Bef1bQownGR+OO9MiO01epGxnn/Ll8z/g87uDbbuLysfyMnspz/p5643PkO/WMiS/jky+alMwD4taxlXfg0yEHhHnO2E0K3vzqOybPNzjAnORakTwCJlVO5caKA3I8E9NWaoWBR4G6h+Am04n3Di4BDyZ8z4jwaTVqshFAyeKcLMZAci65KbCS9ayNbHPMviawOboAevDCEDuhU7pbUxM+WzFxCfJuXDx/tCNA//BR7ONS4JlPOrINn4DQyWr/j8Tx8sNOcOdxj5cfTuFcOq/RuAXZDOCl82TkzOyIDjwgthpaVx+c3ssPJi5O8Msvv/wt17VBMz4EHlstVgwFExPh1Ft810awCZ6vSdM51Z/tV0RnxWttLkH0yUKmZCNXqTr16WiyVQatZI2FoAqX8ncved4L9GelSRduWKwk25bbkq1JLN0VxK1ArCoE87aq4dF2cA5WHoy/m5ZTf60e3MjwXfOA58yrzz4Kr05MgPljYrodpyYmONdAN4bqb9yDxi2ILmcGTisPXxL78Z0HHTDwJiZBIdgueNTENOW+lhZMfpPtvTBlci61+pyQv/IpjyzyBVSTsDRpnoP3lP9eYLMmIpMJHbw1rlv6zC6yLdedn9LpnrpbeTh3YrJFaTvbTY8P7PnuHrjeQw/cjEuDwGcAmabjJqNtNK/RurHxCq5JSZ3u7MFk9khnFYD0JWjgy3X8zaNyqZUVlBfw+Uher8GUB+/O17SiG4nk26rz7DCB2Oo1Mc3JJJ1sJXpzBOdWUdpq5zq9flYkhxtKW/AmJzsae+HsicmgdRe8NUBH+itNx3bNYDNUQZHxCmjKngkF6vnMKKQH2wL25Rm7wKk+fZRmoHeNTmXXIr7ircmva8fqdey8/iE+StUx3nPMQ/mPTGGrbMqz8guu04egPPVS+Wvp2dC2bfqBt+RUrj77nnWd0zlMeu8JfJRg2nGxCdY6tiV9XO35pWeze+Gkx2M4ZadohjxBgILxkf5J6WadtOWl1+pdgtpupXOx1fYeKWTwq3y26exV28qzVWeSguqjoU3t5N0b+qiv11D5WzxMGa8Zz3sj2aSt1eeW3PLmBFz7t3Buvc+AZMn+pmyddw3O07X6zouN1X3LdvZG/MdfKay2nB68XeiFGm/S+l5rL7ypvZTu4aC7XszKK2XUR/orNdhNRmGWOa6T/LMivVghmYx64409raCv7tzoqMn8HkAH7VavUg44kz4rn9t+cyxD4wnzHNbrR0JfdNzzkfJO4TVZv2a8NYZbOn0rb6scTuU/Cvo7t0+2kT14e9PzJS8/bPnso7D5HVNCSAJKb2UwfG/u5NQFnQz9SH8leuu8gGGA7dN6mOjuQ9q6q30mTD3YCnakC6/iesbkVeWCIT2xq75jAnXUV6ZetK5JBeDOHaPpOPOcz7La5BNrvnMJ5JVm2aOTQOLGMd5m384rb2tZfnVnusSfo/EMCdILlH9qDGtTAJemnWoHp2hUtmfCB37FdC972Fb3c1u+YxLXbdsFdo5PN5J9B8cfZ51HYvOtvAlBwq9X+3jPXrS9RkwbBGk66oG/QC8ZppWRCchzld5u8cdsEn0+C06ZkXyJHhi45CeQJN+JcBRQ7u0wf0/t7wLk+y7EVgL9pc9rwT7xwV6DcVoRvxJMG8/uIXoTk/Za9kjEL57wJ8VvqBzkl+KzYzsgb+EZ/b0xbTcjnYT1Ov1p5/xUu1PQZi/EUzL2zNcHtt7G6/+iAt74HH+1/e4V+u+///7ledMeeHNiwrxA4T85nAumhJt3ATnvgb+QfoCxWi1AQdjr4l69tGJ4FpwyI/npwsTMwL2eat/andqcmGwV+OreR7gm8FZUb5jo2WCj007ntT6cO9Zn5exbXogfx84hWmGWPRrxR4+Tj+mbU5ezzpRjleEt7CnjI0Fu+pGaYGCVT3kTtzbK2bdzN1CQPtPllo4u1fOtiAe8x3/y+njWD9auv0ajjYUJX+S3PvHgt3vgzYkJ4wKGZV97jFOpzgWXN8h8NZi6SSflMQh3KpbEPtakN06QoXxmvDb+5Ow7Jj/b4iNEv+7t2A0OoMHGOINjkxW07UlX6VP92p4LNOM1vbuW0I2m5FqabYLy2lUWX++B+EimbgZcx3+6wqf86iYLXCpDNB6NyaPj5HOeX8sPGvMmCdLXFvSjTXp1XNup8xaNvTHl7NzbduLRfF0+vm358V2T07t/YLsFAbUBAEKVOIH8M0k9LeiiY7pwpDdGK81zenN8DwPdC8nvGwhbwrYFPF/zTRMjL4DSQ3pja470wnHkO5dXgkv1hk5jBJ1Hs/4lPFe/vldUbwuznz2AF3zWbxN+thavjskUkq2yc/EeMnacfd+DDzTSz5ZuJtQtKS9NPub1KRrvAf3mc875l5s+NkJ+k5P8dOGnl/ylionJdp9V1R44e2JSbVbFfMolBJxJ6qmRTuhi6qUAAQxD8OUAjGI6wrOCvL38YSvPM6a26uisu7UCqvP0BelTci6tdc6BNtpCYwXyXM9+AP3ZJriuLqgzMWnvhclD/K4ySitv5cOlfO8pZzyuuAcPaBSw0+Op/mDWWXU3r1+jsafuYPIapk/BXDXJ47Me5djK+/Lly8s7BnvgLhMTnEnmq0H6KnB17S0z21PejHHumd2lwfUzgh683ek5pZUSBxAIrKQ4Qv9pY+vAtcS+6EjbJvImimgWTM5FbaHzxgZy0q7VmW1C9QJe13p7BZ74WCfy8uMDzxLEa9erLOdiSzePxMrb5PtWsCX0elaUbrZAbryoP+vJf63dxJ66i1d+lJ3gc/K/FYusmP7888+XG8rvvvvu5Qdd98DdJqYD/xcNOhQ8XTP6HIBh9uzkWUFO2wUmHG8A2Rbwm4veAOo5G9ABfeQ4zpWZmGBOQDn0uQFgAm08Tft1XZ5j41Od2kzM8VUerbBePxqTXyBD+qEv5/Gsjrypx2S5hO/aPxqTpy3+8B7/1wLdxn0G53Q4QW71pfRafpA39btiL90FvJLNTXFvA7dNnu7k8z/X7eTMbw89Y7LTsQcu0g4hDpyHDFcqcGWMBl3AffZJCRi5xOCtjvqrAEGAPqycJLoAeemrtiBPUs7RCyLVn+USepK8IL9xWOmDPEmbxsa5Y6hONGbeTKfy30phKw/id5ZXJ3mk9DD5DPLSlbKu01epMYGZX5r9R2elLcEsL6+gPgN3bUqTjhTm9Sxf0+xvq3/oGmpXmnY05Q7OJ92SeqHyUjTulaK7lVd+cD7lTr451uynGxtHk5nkfC+cvWI6cOAW+MDYismWgFdT/air7TsTtEkrZI6OJrC5592xYKaOvFZVM1+78toeVK+A0cQGjlKBB3JC7eRxTHVyepg8yI+O8+pNZ9Z/dbSdUHfm1QdMXtUpUMpHU968+3UsH+qva7TRUE9ePKIZH9o4J3f01JPnWtJn/WnrGJyjo46j8uQvP3rywLkEK936ArxHB9SBmRef8mo7VwqScmnyAOjhzXGlnSzKZ1+Sa/XQJOu0mRn4Vx7jr3qTdu1cS+pI2qrnHD+O1YHGF93pX9rUl3bZieQa3eqBl5X4re+Zfvzxx5dXxvfAMTEdeCiYV8k/wTJwjuLFh2+++ebllXEPWP2yCJi0+nbCZOYNPnVNUvIFFx/dmtTQ4tRed/VNlG0HdTid51iczrVtCF+s+7rdObocF22wVaE/W4v9J5F9dX3ZutDWP5VqZ8LzkaF+0dbW1qR8K0I84cfE6687OLbfCcSfB8f27PXF8fUlGODbK7n6pxOgKzrTf7LRkTwvj+DfA2l09KUd/tAhP73SmWtJX+io79ei60ue3y4kC5pkE1D1hx7Z6JFs6qlPH54HGjd6cK0//NGvIJduyaotOSRjrx4eo0MO9ZSTBY+2fI27PPp0Q4M2Hr/99tsXmfqExZti6Z9s2qFNRvpXRz9+cSS5jAke8YqWmxc2w7bozbgK0vpGW9905Nx3P+qwEaAj+u2fbtO/se0PBY09vvRPj3SqP3xqgyf2ph4b0oaulKurPzrCHx3hy48e4LFxxDM68siKD9f03XeDaJBXXz3r1RfdOWdb+sUj/vWrTBv/DLDXB7av/rX6gQO3QiAVvDiLIyMXdDi5oCB4+1kUzilYCEQcSWAWDDgLGgUdAQQ4ljs5jo+2pD7anMg1B0OXk+lLm4IgOoKVX5twjXZ3jfjwQbky1wIKGvrSjoPrA48Fa30JDPWlf3z7bos8HFygFHTUETDIJh9dAVQgwaNASicFEP3jEa34Vsc1mfUlr8BIV9oJgvRBNuWCujIBDb+u1VOnYCjokYNs8vFMDjLorztpMuLROOofj3RLtvjGKzp4J5v+yI2uo4CLtnby1EFLGdrsRR35JkF1jA0ekxVfblLSPz3SKTr680aZ/pUL6s71R1bX6MW3sZb0jw5doYEe/ZBFmXbK0HZNdmPZ2NI7feuT7uXFI35NaGwLjxLZ0MaLiUF97fBIfu3olPz0rw2d+Bid/oNyPKiLJ33Qk5sq12RDWx0yyUObHuUZL3lkIhsb079JkB2YfMmxB/7ZLzhw4AEQeCTgvAybY8kTeDiIcwGAUxT41BXccl7XjqA+x3SsfpAP8psgwLn+lHM2/bmWIPpoqltA7BpvUoFKO/mgr8k3Oq45vfqSoKCdNs6jL6mvTryCOq6VOwe8OJfXdXWcQ/25lpSVF31HZXhxxDN+5MuT0l/nYDziW5760a2Oa3VqG/+OriE+0r/rdBvkzb7w6VqiV9fq433y6Dp9yZ88ajP5RLtyUFa5tuqr07Ex0b9yfUnKs2N1phxdk1Ogd5RHDsgm6k85HvQjTb1NfaBVHdAO1FU+bRTd8gE/0VIGzqH61TEpmSy9jecmsvqPxrGVd2A3MHoOIzH8HD2ncZSXM3I+wbC6rqsjT4AADiQPDUl75aCO/sqbDhjqOzr1rx3+3P26RksSjIK29cWVBAPt0dE22s7lOZfnevLt7hadaJNVvnL5zvVdG3TctbuW6kvSf3fsBSd05SsnFxrytE2u6pFDHXfwVoPqAFr6kdCyMkDHpCJPe0mZhA66+jSOkny01dMGaqcfsjqnD0A/WrWR1zXET/rvWgJ5ysimjXPIHvBH38rloU+3tYm25Bx952SLTrLEN/2nW/1POVxHR5o86a+xgNk3PqNTO9fJQa/qQPyoI6Vb5fUV6it+6qt+HGd514/EMTEdeBgyrQzZNSdg9DmzPOWVSZwNpiNKOVCIbsctoFsCfUJ5k+bqhNPJ619e19UVaMJaVr8dobJZD+3OYfJHB7WfdAvCUlC/vGiAdtGDyWf1agvOk7UxmFBfufzGa8XaX33WHzhG27Hy2q38notoxFv9zb4m1K1/yfXkDTqP1orawWv8TvngVL2w9ld9x7VtdV9ro6wEk9fy5YXqhbXPR+CYmA7cjFOGO/NzCA4poHWXtzpEONf4z6238ghbeRMr7XicTkueGcTmRFr9FbfwDGv+Fr3yTtG4F9a+X+vvVrkvwWs6ugcf59KAWTeareJm2bSr1+ifKpP/Gs+VzTralKCyU33shX80ceDAnXHK4E/dYX90rE5vQmq1RKZ5d/5RHPxrxar3dezOQfa7lW4BXrIXk5HkfKV/j75C8k89oN1k6GaxFfC9+rwFx8R04GZkzNOoOYDUaiLMOp8NnBjvyeS6Z2CVwSr3Z5X3wGOQD7CZUnmPxPTDj45jK+/AXeHBrQfAXj31QNmDcd9LQM43TS5nvNYMz3XmLfpv9blFWxt3lh6Oe63W0TcrXhIwQZmQJGgFtcp4C89vYaV9DY1LcEl/j5T7NUx68XAuL/fArXKv+afoyV/rzutL9HAuz4/CsWI6cBcweslk5NsK30b4fsJ3I6E64b2N/1qQwaTk+5M//vjj5duU+QLEKZD3s8r8mZHeP7ruH83nSp8ddxNV/uqj74VjYjpwN/SWmFdeff/ggzwf5oUc4qNgOukl0IZcfjnAj9H6Ot9qKYemg3W1dA0ubbtV/5b+D3wM3GpDpRUzf05IW3X3xrGVd+AuyIzcgfmeQrKt5/sJk1Q4ZfSrGe7hHNeYfm3I5jsf3/L4tQrPmiYm/9fKcg1/a1/X0HgWnJJ9D9uauLW/18bwXNqX2sHeOlpxTEwH7g4mZfVkkmLgfaAJpwx+NcM9HOMW009GE7BJaV0h3YP/a/hb+71FxmfC1MMetjVxa3+vjeG5tC+1g711tOKYmA7cBasZzetp5KcMfm2/h2PcYvq17Yjf0r1wDX9r/7fI+EyYetjDtiZu7e+1MTyX9qV2sLeOVhzPmA7cDdOYtwz7NWNXNtNHRzy+F7/1u6YD2zh09Jnwr3/9G/CyvDbVyNWxAAAAAElFTkSuQmCC;" vertex="1" parent="1">
                    <mxGeometry x="180" y="520" width="422" height="277" as="geometry"/>
                </mxCell>
            </root>
        </mxGraphModel>
    </diagram>
</mxfile>